<svg width="41" height="60" viewBox="0 0 41 60" fill="none"
     xmlns="http://www.w3.org/2000/svg">
    <path d="M29.1305 2.53125H12.0205V14.7683H29.1305V2.53125Z" fill="#AD956A"/>
    <path d="M8.48273 7.9901V18.2547C7.88273 18.2547 7.31682 18.2487 6.74982 18.2547C6.00982 18.2637 5.78671 18.48 5.78571 19.201C5.78171 21.313 5.78171 23.425 5.78571 25.537C5.78571 26.256 6.02479 26.4998 6.74079 26.5008C15.9588 26.5008 25.1768 26.5008 34.3948 26.5008C35.1588 26.5008 35.3898 26.269 35.3948 25.515C35.3988 23.4223 35.3988 21.3301 35.3948 19.2381C35.3948 18.4781 35.1666 18.2578 34.4046 18.2538C33.8546 18.2538 33.3048 18.2538 32.6988 18.2538V7.99303C34.3048 8.09303 35.9528 7.69299 37.5118 8.43199C38.295 8.77321 38.9668 9.32699 39.4512 10.0306C39.9357 10.7343 40.2134 11.5596 40.2528 12.4129C40.2747 12.6679 40.2657 12.926 40.2657 13.182C40.2657 26.802 40.2277 40.4219 40.2967 54.0409C40.3306 54.7343 40.2189 55.427 39.9686 56.0746C39.7183 56.7221 39.335 57.3102 38.8436 57.8006C38.3521 58.291 37.7634 58.6733 37.1153 58.9222C36.4672 59.1712 35.774 59.2813 35.0806 59.246C25.3496 59.21 15.6188 59.2348 5.88776 59.2318C4.77355 59.3077 3.6689 58.9816 2.77448 58.3129C1.88006 57.6441 1.25511 56.677 1.01276 55.5868C0.919993 55.1227 0.879005 54.6502 0.890689 54.1771C0.884689 40.4391 0.912636 26.6998 0.861636 12.9618C0.841416 12.3014 0.956991 11.6441 1.20099 11.0301C1.44499 10.4162 1.81235 9.85874 2.28034 9.39244C2.74833 8.92614 3.30688 8.56098 3.92169 8.3192C4.53651 8.07742 5.19454 7.96456 5.8548 7.98717C6.7138 8.01317 7.57873 7.9901 8.48273 7.9901ZM20.6478 28.7572C16.0684 28.7572 11.4891 28.7572 6.90973 28.7572C5.96773 28.7572 5.78476 28.9419 5.78376 29.8509V52.9452C5.78376 53.8822 5.99373 54.098 6.93073 54.098C16.0294 54.098 25.1294 54.098 34.2308 54.098C35.1718 54.098 35.3936 53.8759 35.3936 52.9569C35.3936 45.2789 35.3936 37.6007 35.3936 29.9227C35.3936 28.9437 35.2028 28.7557 34.2098 28.7557C29.6884 28.7551 25.1678 28.7559 20.6478 28.7572Z"
          fill="white"/>
    <path d="M31.1625 21.5769C31.4765 21.5949 31.7316 21.5937 31.9806 21.6267C32.0754 21.627 32.1691 21.6468 32.256 21.6848C32.3429 21.7229 32.4211 21.7785 32.4857 21.8479C32.5503 21.9174 32.5998 21.9992 32.6315 22.0886C32.6631 22.1781 32.6761 22.2733 32.6696 22.3679C32.6606 22.8449 32.3695 23.0677 31.9125 23.1057C31.7755 23.1177 31.6364 23.1057 31.4984 23.1057H9.65442C9.47736 23.1186 9.29945 23.114 9.12341 23.0911C8.73141 23.0101 8.43156 22.7488 8.52356 22.3538C8.62404 22.0612 8.82914 21.8162 9.09948 21.6658C9.39067 21.5768 9.69602 21.5428 9.99963 21.5657V20.823C9.99963 14.903 10.0316 8.98274 9.97961 3.06374C9.95715 2.6911 10.0139 2.31806 10.1464 1.96901C10.2788 1.61997 10.4837 1.30281 10.7477 1.03884C11.0117 0.774865 11.3286 0.57018 11.6776 0.437764C12.0267 0.305348 12.3999 0.248311 12.7726 0.270772C17.9616 0.305772 23.1515 0.283932 28.3405 0.284932C28.7213 0.23266 29.109 0.268958 29.4735 0.390889C29.838 0.51282 30.1695 0.717187 30.4423 0.988057C30.715 1.25893 30.9216 1.58873 31.046 1.95241C31.1704 2.3161 31.2092 2.70359 31.1595 3.08474C31.1649 9.00474 31.1649 14.9247 31.1595 20.844L31.1625 21.5769ZM20.5914 13.677C22.7204 13.677 24.8506 13.692 26.9786 13.657C27.134 13.6479 27.2853 13.6048 27.4222 13.531C27.5592 13.4573 27.6785 13.3544 27.7716 13.2298C28.0556 12.7168 27.6434 12.222 26.9655 12.221C22.7261 12.2136 18.4876 12.2136 14.2496 12.221C13.6166 12.221 13.3276 12.4721 13.3336 12.9661C13.3396 13.4601 13.6065 13.676 14.2635 13.677C16.3722 13.6764 18.4814 13.6754 20.5914 13.6741V13.677ZM20.5914 8.44606H25.9774C26.3324 8.44606 26.6886 8.44606 27.0436 8.44606C27.1426 8.45862 27.2431 8.4497 27.3385 8.42019C27.4339 8.39067 27.5219 8.34097 27.5966 8.27468C27.6712 8.20838 27.7306 8.12713 27.7711 8.03591C27.8117 7.94469 27.8322 7.84569 27.8314 7.74587C27.8451 7.64688 27.8368 7.54626 27.8068 7.45095C27.7767 7.35564 27.7258 7.26789 27.6578 7.1946C27.5899 7.12131 27.5067 7.06428 27.4139 7.02712C27.3212 6.98996 27.2212 6.97364 27.1215 6.97976C26.9445 6.96476 26.7665 6.96511 26.5895 6.96511C22.5835 6.96511 18.5783 6.96511 14.5736 6.96511C14.3372 6.95951 14.1007 6.97637 13.8676 7.01589C13.7834 7.02679 13.7025 7.05477 13.6298 7.09841C13.557 7.14205 13.4941 7.20021 13.4449 7.26931C13.3958 7.3384 13.3613 7.41726 13.3439 7.50026C13.3264 7.58327 13.3264 7.66868 13.3436 7.75173C13.3956 8.30173 13.7624 8.45209 14.2584 8.44509C16.3674 8.43909 18.4785 8.44265 20.5895 8.44265L20.5914 8.44606ZM17.4486 5.82106C18.5316 5.82106 19.6156 5.82706 20.6986 5.82106C21.2546 5.82106 21.5885 5.53178 21.5765 5.08278C21.5625 4.52978 21.2015 4.3299 20.7125 4.3279C18.5459 4.32057 16.3792 4.32057 14.2125 4.3279C13.7355 4.3279 13.3495 4.49865 13.3395 5.06765C13.3305 5.55465 13.6464 5.81706 14.2584 5.82106C15.3204 5.82206 16.3824 5.81765 17.4464 5.81765L17.4486 5.82106ZM17.4486 11.0711C18.5106 11.0711 19.5736 11.0711 20.6366 11.0711C21.2636 11.0711 21.5735 10.8268 21.5795 10.3518C21.5855 9.87683 21.2794 9.61601 20.6544 9.61501C18.5297 9.60834 16.4044 9.60834 14.2784 9.61501C13.6354 9.61501 13.3395 9.85476 13.3395 10.3338C13.3395 10.8338 13.6455 11.071 14.3185 11.072C15.3575 11.07 16.4015 11.0676 17.4445 11.0676L17.4486 11.0711Z"
          fill="white"/>
    <path d="M20.6472 28.7557C25.1672 28.7557 29.6873 28.7557 34.2073 28.7557C35.2003 28.7557 35.3911 28.9437 35.3911 29.9227C35.3911 37.6007 35.3911 45.2784 35.3911 52.9564C35.3911 53.8754 35.1693 54.0975 34.2283 54.0975C25.1289 54.0975 16.0289 54.0975 6.92822 54.0975C5.99122 54.0975 5.78225 53.8817 5.78125 52.9447V29.8504C5.78125 28.9414 5.96523 28.7577 6.90723 28.7567C11.4879 28.7533 16.0679 28.753 20.6472 28.7557ZM33.8752 30.2557H7.31323V52.5506H33.8752V30.2557Z"
          fill="white"/>
    <path d="M30.0896 32.0137H11.1696C10.2114 32.0137 9.43457 32.7905 9.43457 33.7487V48.7617C9.43457 49.7199 10.2114 50.4967 11.1696 50.4967H30.0896C31.0478 50.4967 31.8246 49.7199 31.8246 48.7617V33.7487C31.8246 32.7905 31.0478 32.0137 30.0896 32.0137Z"
          fill="#AD956A"/>
    <path d="M26.1113 39.3364C25.2887 40.1618 24.4648 40.9859 23.6394 41.8086C22.6874 42.7606 21.7355 43.7126 20.7835 44.6646C20.6078 44.8576 20.3937 45.0117 20.155 45.1172C19.9164 45.2227 19.6584 45.2773 19.3975 45.2773C19.1365 45.2773 18.8783 45.2227 18.6397 45.1172C18.401 45.0117 18.1871 44.8576 18.0115 44.6646C17.0805 43.7396 16.1405 42.8246 15.2195 41.8906C15.0342 41.7141 14.8862 41.5021 14.7849 41.2671C14.6836 41.0321 14.631 40.7789 14.6299 40.523C14.6288 40.267 14.6793 40.0132 14.7786 39.7773C14.8779 39.5415 15.024 39.3285 15.2078 39.1504C15.3916 38.9723 15.6095 38.833 15.8484 38.7412C16.0873 38.6494 16.3424 38.607 16.5982 38.6162C16.8539 38.6254 17.105 38.6857 17.3367 38.7944C17.5684 38.9031 17.7757 39.0577 17.9463 39.2485C18.3813 39.6715 18.8054 40.1057 19.2344 40.5347C19.2834 40.5837 19.3344 40.6294 19.4214 40.7114C19.4884 40.6304 19.5365 40.5605 19.5955 40.5015C20.8681 39.2195 22.1422 37.9384 23.4175 36.6577C23.6594 36.3971 23.9719 36.2124 24.3169 36.1265C24.662 36.0405 25.0245 36.0571 25.3604 36.1738C25.6971 36.2656 25.9993 36.4546 26.2285 36.7178C26.4578 36.981 26.6038 37.3067 26.6485 37.6528C26.7081 37.956 26.6901 38.2691 26.5962 38.5635C26.5023 38.8579 26.3355 39.1237 26.1113 39.3364Z"
          fill="white"/>
</svg>
