<svg
        width="44"
        height="44"
        viewBox="0 0 44 44"
        fill="none"
        xmlns="http://www.w3.org/2000/svg"
>
    <path
            fill-rule="evenodd"
            clip-rule="evenodd"
            d="M12.947 12.5183C9.88502 15.2963 17.647 19.8983 18.793 21.8003C17.414 23.8563 8.38297 29.5323 14.017 31.7543C16.222 32.7153 20.748 26.1943 22.231 25.2383C24.125 26.3743 28.692 34.0813 31.453 31.0223C34.522 28.2793 26.793 23.6703 25.67 21.8003C27.053 19.7343 36.119 14.0393 30.457 11.8223C28.244 10.8783 23.726 17.3993 22.231 18.3613C20.309 17.2043 15.739 9.46125 12.947 12.5183ZM43.847 21.8003C43.36 -6.6057 1.10798 -6.5997 0.625977 21.8003C1.11198 50.2003 43.365 50.2003 43.847 21.8003Z"
            fill="currentColor"
    />
</svg>