<svg width="41" height="40" viewBox="0 0 41 40" fill="none"
     xmlns="http://www.w3.org/2000/svg">
    <path d="M20.4651 39.6838C15.3985 39.6838 10.3318 39.6838 5.26514 39.6838C4.28776 39.7237 3.32696 39.422 2.54764 38.8308C1.76831 38.2396 1.21906 37.3955 0.994139 36.4436C0.909583 36.056 0.869315 35.6605 0.874129 35.2639C0.868129 25.0685 0.868129 14.8736 0.874129 4.67891C0.853374 4.10479 0.950629 3.5323 1.15986 2.99727C1.3691 2.46224 1.68588 1.97579 2.09061 1.56807C2.49533 1.16035 2.97939 0.839845 3.51286 0.626664C4.04634 0.413483 4.61788 0.312297 5.19214 0.328813C15.4028 0.317479 25.6138 0.317479 35.8251 0.328813C36.3994 0.313718 36.9708 0.41572 37.5042 0.629105C38.0376 0.842491 38.5219 1.1625 38.9273 1.56954C39.3327 1.97657 39.6509 2.46205 39.8622 2.99629C40.0734 3.53054 40.1735 4.10271 40.1561 4.67696C40.1731 5.83596 40.1561 6.99598 40.1561 8.15498C40.1561 17.175 40.1561 26.1946 40.1561 35.2146C40.1917 35.9885 40.0165 36.7579 39.6494 37.4401C39.2822 38.1224 38.7367 38.692 38.0711 39.0886C37.3414 39.5186 36.5023 39.7271 35.6561 39.6887C30.5955 39.6827 25.5318 39.6811 20.4651 39.6838ZM26.1441 36.8669H35.6781C35.9045 36.9027 36.1362 36.8842 36.3542 36.8132C36.5721 36.7421 36.7701 36.6206 36.9319 36.4582C37.0937 36.2958 37.2147 36.0973 37.285 35.8791C37.3553 35.6609 37.3728 35.4291 37.3361 35.2028C37.3361 25.0695 37.3361 14.9363 37.3361 4.80293C37.3724 4.57654 37.3546 4.34439 37.2842 4.12618C37.2139 3.90796 37.093 3.70968 36.9314 3.54707C36.7697 3.38447 36.5719 3.26228 36.3542 3.19063C36.1364 3.11897 35.9047 3.1001 35.6781 3.13496C32.6615 3.13496 29.6441 3.13496 26.6261 3.13496C26.4721 3.13496 26.3191 3.14891 26.1441 3.15791V36.8669Z"
          fill="#AD956A"/>
    <path d="M26.1411 36.867V3.16678C26.3161 3.15778 26.4691 3.14383 26.6231 3.14383C29.6398 3.14383 32.6571 3.14383 35.6751 3.14383C35.9017 3.10896 36.1334 3.12833 36.3511 3.19998C36.5689 3.27164 36.7667 3.39334 36.9283 3.55594C37.0899 3.71855 37.2109 3.91732 37.2812 4.13553C37.3515 4.35374 37.3693 4.58541 37.3331 4.8118C37.3331 14.9451 37.3331 25.0784 37.3331 35.2117C37.3697 35.438 37.3522 35.6698 37.282 35.888C37.2117 36.1062 37.0907 36.3047 36.9289 36.4671C36.7671 36.6295 36.5691 36.751 36.3512 36.8221C36.1332 36.8931 35.9015 36.9116 35.6751 36.8758H26.1411V36.867Z"
          fill="white"/>
</svg>
