<svg width="40" height="40" viewBox="0 0 40 40" fill="none"
     xmlns="http://www.w3.org/2000/svg">
    <path d="M19.7541 39.486C14.6701 39.486 9.58587 39.486 4.5012 39.486C3.51515 39.528 2.54557 39.2226 1.76146 38.6232C0.977351 38.0239 0.428409 37.1683 0.210189 36.2058C0.12558 35.8014 0.0852244 35.3889 0.0900716 34.9758C0.0840716 24.8538 0.0840716 14.7313 0.0900716 4.6086C0.0530095 4.00657 0.144365 3.40358 0.358138 2.83956C0.571911 2.27554 0.903273 1.76383 1.33006 1.33761C1.75685 0.911385 2.26942 0.580414 2.83372 0.367392C3.39802 0.154369 4.00128 0.0639035 4.60326 0.101767C14.6926 0.101767 24.7814 0.101767 34.8701 0.101767C35.476 0.0601612 36.0838 0.1491 36.6523 0.362509C37.2209 0.575917 37.7369 0.909085 38.1658 1.33907C38.5946 1.76906 38.9263 2.28607 39.1382 2.85518C39.3501 3.4243 39.4375 4.03215 39.3943 4.6379C39.3943 14.7759 39.3943 24.9143 39.3943 35.0529C39.4239 35.6427 39.3296 36.2323 39.1174 36.7834C38.9053 37.3345 38.5798 37.835 38.1623 38.2526C37.7448 38.6703 37.2444 38.9958 36.6933 39.2082C36.1423 39.4206 35.5529 39.5154 34.9631 39.486C29.8925 39.4907 24.8228 39.4907 19.7541 39.486ZM14.154 36.6667H34.9341C35.1567 36.6993 35.3839 36.6794 35.5974 36.6081C35.8108 36.5368 36.0047 36.4164 36.1631 36.2565C36.3215 36.0967 36.4402 35.9018 36.5095 35.6877C36.5788 35.4736 36.5969 35.246 36.5622 35.0236C36.5622 24.887 36.5622 14.7506 36.5622 4.61397C36.5622 3.43897 36.0482 2.91964 34.8882 2.91964H14.154V36.6667Z"
          fill="#AD956A"/>
    <path d="M14.1582 36.666V2.91211H34.8921C36.0521 2.91211 36.5662 3.43096 36.5662 4.60596C36.5662 14.7426 36.5662 24.8794 36.5662 35.0161C36.6008 35.2385 36.5828 35.4661 36.5134 35.6802C36.4441 35.8943 36.3254 36.0887 36.167 36.2485C36.0086 36.4084 35.815 36.5288 35.6016 36.6001C35.3881 36.6714 35.1609 36.6918 34.9382 36.6592H14.1582V36.666Z"
          fill="white"/>
</svg>
