<svg width="37" height="28" viewBox="0 0 37 28" fill="none"
     xmlns="http://www.w3.org/2000/svg">
    <path d="M34.679 9.65278C32.2463 12.0901 29.813 14.5237 27.379 16.9531C24.565 19.7671 21.751 22.5807 18.937 25.394C18.418 25.9644 17.7855 26.4201 17.0802 26.7319C16.3749 27.0437 15.6122 27.2045 14.841 27.2045C14.0698 27.2045 13.3071 27.0437 12.6018 26.7319C11.8965 26.4201 11.264 25.9644 10.745 25.394C7.99601 22.662 5.21802 19.9568 2.49602 17.1938C1.80825 16.492 1.31724 15.6219 1.07229 14.6704C0.827351 13.7188 0.837098 12.7195 1.10055 11.7729C1.36401 10.8263 1.87191 9.96551 2.57322 9.27729C3.27454 8.58907 4.14459 8.09756 5.09601 7.85199C6.05883 7.59293 7.07377 7.59859 8.03358 7.8686C8.9934 8.13861 9.86247 8.66312 10.549 9.38617C11.836 10.6352 13.089 11.919 14.358 13.186C14.502 13.33 14.658 13.4669 14.908 13.7089C15.108 13.4679 15.249 13.2618 15.422 13.0878C19.1853 9.29783 22.952 5.5113 26.722 1.72797C27.4366 0.957449 28.3603 0.411941 29.3801 0.158147C30.3999 -0.0956473 31.4716 -0.0469232 32.464 0.298772C33.458 0.570535 34.3492 1.13065 35.0255 1.90815C35.7017 2.68565 36.1327 3.64588 36.264 4.66791C36.4428 5.56507 36.3912 6.49289 36.114 7.36469C35.8368 8.23649 35.3431 9.02364 34.679 9.65278Z"
          fill="white"/>
</svg>
