<svg width="221" height="220" viewBox="0 0 221 220" fill="none" xmlns="http://www.w3.org/2000/svg">
<path d="M46.704 116.842L45.5678 114.792C45.0492 113.952 43.9872 111.976 44.0119 110.396C44.0366 109.284 44.7775 107.457 45.2715 106.37L45.963 105.011L46.9016 103.06C47.1979 102.221 47.3708 101.307 47.3708 100.393C47.3214 94.7371 40.8012 89.8469 29.3906 91.5263C20.5734 92.8106 8.79246 96.9599 1.77821 99.6026C-0.172937 100.344 -0.419927 102.986 2.00048 103.653C2.00048 103.653 5.90275 104.74 7.13765 104.666C11.0399 104.419 23.7842 97.6514 31.2183 96.4165C38.0102 95.3051 44.2589 96.9846 44.6047 100.788C44.9751 104.764 41.9866 108.346 41.9372 108.395C41.221 109.26 39.9368 109.432 38.9982 108.815C37.5657 107.876 35.7133 106.814 33.6387 106.073C27.6865 103.974 23.0185 107.308 22.7469 110.593C22.7469 110.618 22.7469 110.643 22.7469 110.643C22.7469 110.667 22.7469 110.692 22.7469 110.692C23.0926 113.977 27.8347 117.089 33.7375 114.866C35.7381 114.1 37.541 113.063 38.9241 112.075C39.8626 111.433 41.1222 111.581 41.8879 112.396C41.9126 112.421 44.7281 115.236 44.8022 119.904C44.8763 124.696 38.3313 125.437 31.5146 124.449C24.2287 123.411 10.7436 116.274 7.23646 116.521C5.40881 116.644 2.17339 117.83 2.17339 117.83C0.172845 118.423 -0.370558 120.991 2.04985 121.88C9.2123 124.473 21.265 128.326 29.7858 129.364C41.2457 130.747 47.6425 125.783 47.5931 120.151C47.5931 119.015 47.2968 117.953 46.8522 116.941L46.704 116.842ZM37.8868 111.68C36.8248 112.174 34.4785 112.915 33.1942 113.063C31.0207 113.335 28.9708 113.384 27.7112 112.693C26.254 111.877 26.1058 109.753 27.7112 108.691C28.9214 107.901 30.8972 107.802 33.0954 108.099C34.4044 108.272 36.7506 108.938 37.8621 109.457C40.1837 110.568 39.5169 110.914 37.8868 111.68Z" fill="#D9C79E"/>
<path d="M70.0228 114.051L69.4053 112.791C69.1336 112.272 68.5408 111.087 68.5655 110.124C68.5655 109.457 68.9855 108.345 69.2571 107.679L69.6276 106.839L70.1215 105.653C70.2697 105.135 70.3685 104.591 70.3685 104.023C70.3438 100.59 66.812 97.6265 60.6128 98.6391C55.8214 99.4294 49.4492 101.924 45.6457 103.554C44.5837 103.999 44.4603 105.604 45.7693 106.024C45.7693 106.024 47.8933 106.691 48.5354 106.641C50.6595 106.493 57.5502 102.369 61.576 101.628C65.256 100.961 68.6397 101.973 68.8372 104.295C69.0348 106.715 67.4048 108.889 67.4048 108.913C67.0096 109.432 66.318 109.531 65.8241 109.16C65.0584 108.592 64.0458 107.95 62.9097 107.506C59.699 106.221 57.155 108.247 57.0069 110.247V110.272V110.297C57.1797 112.297 59.773 114.174 62.9591 112.84C64.0458 112.371 65.0091 111.729 65.7747 111.161C66.2687 110.766 66.9602 110.865 67.3801 111.359C67.4048 111.383 68.9113 113.087 68.9607 115.928C69.0101 118.842 65.4536 119.287 61.7489 118.694C57.7972 118.052 50.5112 113.73 48.5848 113.878C47.5969 113.952 45.8433 114.668 45.8433 114.668C44.7566 115.039 44.4603 116.595 45.7693 117.138C49.6469 118.719 56.1918 121.065 60.7857 121.682C67.0096 122.522 70.4673 119.509 70.4426 116.076C70.4426 115.384 70.2697 114.742 70.0474 114.125L70.0228 114.051ZM65.256 110.914C64.6879 111.21 63.4036 111.655 62.7121 111.754C61.5266 111.927 60.4152 111.951 59.7484 111.531C58.958 111.038 58.8839 109.753 59.7484 109.086C60.3905 108.592 61.4772 108.543 62.6627 108.716C63.379 108.815 64.6386 109.21 65.2313 109.531C66.491 110.222 66.1451 110.445 65.256 110.914Z" fill="#D9C79E"/>
<path d="M173.704 116.619C173.26 117.632 172.988 118.694 172.963 119.83C172.914 125.461 179.286 130.426 190.77 129.042C199.291 128.005 211.344 124.152 218.506 121.559C220.927 120.695 220.408 118.101 218.383 117.509C218.383 117.509 215.147 116.323 213.32 116.2C209.813 115.953 196.328 123.09 189.042 124.128C182.225 125.091 175.68 124.375 175.754 119.583C175.828 114.891 178.644 112.1 178.668 112.075C179.434 111.235 180.694 111.087 181.632 111.754C183.015 112.717 184.794 113.779 186.819 114.545C192.722 116.768 197.464 113.656 197.809 110.371C197.809 110.346 197.809 110.321 197.809 110.321C197.809 110.297 197.809 110.272 197.809 110.272C197.538 106.987 192.845 103.653 186.918 105.752C184.818 106.493 182.991 107.531 181.558 108.494C180.62 109.111 179.335 108.938 178.619 108.074C178.57 108.024 175.606 104.468 175.952 100.467C176.297 96.6634 182.546 94.9592 189.338 96.0953C196.772 97.3055 209.516 104.097 213.419 104.344C214.654 104.419 218.556 103.332 218.556 103.332C220.952 102.69 220.729 100.022 218.778 99.2813C211.789 96.6139 200.008 92.4894 191.166 91.2051C179.73 89.5256 173.235 94.4158 173.185 100.072C173.185 101.01 173.358 101.899 173.655 102.739L174.593 104.69L175.285 106.049C175.779 107.135 176.52 108.963 176.544 110.074C176.569 111.68 175.507 113.631 174.988 114.471L173.852 116.521L173.704 116.619ZM182.645 109.062C183.731 108.543 186.103 107.876 187.412 107.703C189.61 107.407 191.61 107.506 192.796 108.296C194.401 109.358 194.278 111.482 192.796 112.297C191.536 112.989 189.486 112.939 187.313 112.668C186.028 112.52 183.682 111.779 182.62 111.285C181.015 110.519 180.348 110.173 182.645 109.062Z" fill="#D9C79E"/>
<path d="M150.435 113.755C150.188 114.372 150.04 115.014 150.04 115.706C150.015 119.139 153.473 122.152 159.697 121.313C164.316 120.695 170.861 118.349 174.714 116.768C176.023 116.225 175.751 114.669 174.639 114.298C174.639 114.298 172.886 113.582 171.898 113.508C169.996 113.36 162.686 117.682 158.734 118.324C155.029 118.917 151.497 118.472 151.522 115.558C151.571 112.718 153.078 111.013 153.103 110.989C153.523 110.495 154.214 110.396 154.708 110.791C155.474 111.384 156.437 112.026 157.524 112.471C160.71 113.829 163.303 111.927 163.476 109.927V109.902V109.877C163.328 107.877 160.784 105.852 157.573 107.136C156.437 107.58 155.449 108.223 154.659 108.791C154.14 109.161 153.448 109.062 153.078 108.544C153.053 108.519 151.448 106.345 151.646 103.925C151.843 101.603 155.227 100.591 158.907 101.258C162.933 101.999 169.848 106.123 171.947 106.271C172.614 106.321 174.714 105.654 174.714 105.654C176.023 105.259 175.899 103.653 174.837 103.184C171.034 101.554 164.661 99.0595 159.87 98.2692C153.671 97.2566 150.164 100.22 150.114 103.653C150.114 104.221 150.213 104.765 150.361 105.283L150.855 106.469L151.226 107.309C151.497 107.951 151.892 109.087 151.917 109.754C151.942 110.717 151.349 111.927 151.077 112.421L150.46 113.681L150.435 113.755ZM155.301 109.161C155.894 108.84 157.178 108.445 157.869 108.346C159.055 108.173 160.142 108.223 160.784 108.717C161.648 109.359 161.574 110.643 160.784 111.162C160.117 111.581 158.981 111.557 157.82 111.384C157.129 111.285 155.844 110.841 155.276 110.544C154.387 110.05 154.041 109.828 155.301 109.161Z" fill="#D9C79E"/>
<path d="M116.86 173.5L114.785 174.611C113.921 175.105 111.945 176.143 110.339 176.069C109.228 176.019 107.425 175.253 106.338 174.735L104.98 174.019L103.054 173.055C102.214 172.734 101.325 172.561 100.386 172.537C94.7303 172.487 89.7413 178.909 91.1985 190.369C92.3346 199.211 96.2369 211.066 98.7808 218.105C99.4971 220.081 102.14 220.352 102.831 217.956C102.831 217.956 103.992 214.079 103.943 212.844C103.77 208.942 97.2248 196.074 96.1381 188.615C95.1502 181.799 96.9532 175.599 100.757 175.303C104.733 175.007 108.265 178.069 108.314 178.094C109.154 178.835 109.302 180.094 108.66 181.033C107.697 182.441 106.61 184.268 105.844 186.343C103.646 192.246 106.882 196.988 110.167 197.334C110.191 197.334 110.216 197.334 110.216 197.334C110.241 197.334 110.265 197.334 110.265 197.334C113.55 197.062 116.761 192.345 114.637 186.417C113.921 184.392 112.883 182.589 111.945 181.181C111.303 180.243 111.476 178.958 112.34 178.217C112.389 178.193 115.23 175.426 119.898 175.426C124.689 175.426 125.307 181.996 124.195 188.788C123.034 196.049 115.65 209.386 115.822 212.918C115.921 214.746 117.057 217.981 117.057 217.981C117.625 220.006 120.194 220.574 121.108 218.179C123.825 211.066 127.9 199.087 129.085 190.591C130.691 179.156 125.85 172.66 120.194 172.636C119.058 172.636 117.971 172.883 116.959 173.327L116.86 173.5ZM111.525 182.218C111.994 183.28 112.686 185.651 112.834 186.936C113.056 189.109 113.081 191.184 112.365 192.419C111.525 193.876 109.401 193.975 108.364 192.345C107.598 191.134 107.549 189.134 107.87 186.936C108.067 185.627 108.759 183.28 109.302 182.194C110.463 179.897 110.784 180.564 111.525 182.218Z" fill="#D9C79E"/>
<path d="M114.488 150.135L113.228 150.728C112.709 151 111.499 151.543 110.536 151.518C109.869 151.494 108.758 151.074 108.116 150.802L107.301 150.407L106.14 149.888C105.621 149.715 105.078 149.617 104.51 149.617C101.077 149.592 98.0387 153.05 98.9526 159.274C99.6441 164.065 102.04 170.486 103.596 174.315C104.04 175.377 105.646 175.55 106.066 174.241C106.066 174.241 106.757 172.141 106.732 171.474C106.634 169.35 102.633 162.385 101.966 158.335C101.348 154.63 102.435 151.271 104.757 151.123C107.177 150.975 109.326 152.63 109.35 152.654C109.869 153.05 109.968 153.741 109.573 154.26C108.98 155.025 108.338 156.013 107.869 157.149C106.535 160.336 108.511 162.929 110.511 163.102H110.536H110.561C112.561 162.954 114.488 160.41 113.203 157.199C112.759 156.112 112.141 155.124 111.573 154.359C111.178 153.84 111.302 153.148 111.796 152.753C111.82 152.729 113.549 151.247 116.389 151.247C119.304 151.247 119.674 154.803 119.032 158.508C118.341 162.435 113.87 169.671 113.969 171.573C114.018 172.561 114.71 174.315 114.71 174.315C115.056 175.401 116.612 175.722 117.18 174.413C118.835 170.561 121.28 164.065 121.996 159.471C122.959 153.272 119.995 149.765 116.587 149.715C115.895 149.715 115.253 149.864 114.636 150.086L114.488 150.135ZM111.252 154.853C111.549 155.421 111.968 156.705 112.043 157.396C112.191 158.582 112.191 159.693 111.771 160.36C111.252 161.151 109.968 161.2 109.35 160.311C108.881 159.644 108.832 158.582 109.054 157.372C109.178 156.655 109.597 155.396 109.919 154.803C110.585 153.593 110.808 153.963 111.252 154.853Z" fill="#D9C79E"/>
<path d="M58.7583 147.393L56.7577 146.158C55.8932 145.665 54.0162 144.479 53.2506 143.071C52.7319 142.083 52.4849 140.132 52.3861 138.947L52.312 137.415L52.1639 135.267C52.0157 134.377 51.7193 133.513 51.25 132.698C48.4345 127.808 40.3829 126.721 31.2199 133.76C24.1562 139.194 15.9071 148.554 11.091 154.309C9.75726 155.914 10.844 158.335 13.2644 157.742C13.2644 157.742 17.1914 156.779 18.2287 156.136C21.5136 154.037 29.3181 141.861 35.2209 137.168C40.6051 132.871 46.8784 131.29 49.0519 134.452C51.3241 137.761 50.4597 142.33 50.435 142.38C50.2374 143.491 49.2001 144.257 48.064 144.158C46.3598 144.034 44.2358 144.01 42.0376 144.405C35.8384 145.492 33.3687 150.678 34.7517 153.691C34.7517 153.716 34.7764 153.716 34.7764 153.741C34.7764 153.765 34.8011 153.765 34.8011 153.79C36.7029 156.482 42.3587 156.877 46.4339 152.061C47.817 150.407 48.8543 148.628 49.5952 147.097C50.0892 146.084 51.2747 145.59 52.3368 145.936C52.3862 145.961 56.2143 147.023 58.5606 151.073C60.9811 155.223 55.6216 159.051 49.2001 161.545C42.334 164.188 27.0953 164.558 24.1563 166.485C22.625 167.498 20.4021 170.116 20.4021 170.116C18.9449 171.622 19.7353 174.117 22.2792 173.697C29.7874 172.462 42.1858 169.943 50.1386 166.683C60.8329 162.286 63.9695 154.852 61.1786 149.962C60.6106 148.974 59.845 148.184 58.9558 147.517L58.7583 147.393ZM48.5332 147.22C47.8664 148.159 46.1622 149.962 45.1249 150.728C43.3713 152.012 41.593 153.074 40.1606 153.074C38.4811 153.074 37.3203 151.296 38.2095 149.567C38.8763 148.283 40.5557 147.245 42.6304 146.405C43.8653 145.911 46.2363 145.343 47.4465 145.269C49.9904 145.121 49.5953 145.739 48.5332 147.22Z" fill="#D9C79E"/>
<path d="M77.7334 133.562L76.5725 132.772C76.0786 132.451 74.9918 131.71 74.5226 130.846C74.2015 130.253 74.0039 129.092 73.9298 128.376L73.8557 127.487L73.7076 126.202C73.5841 125.684 73.4112 125.14 73.1395 124.671C71.4353 121.683 66.9156 120.818 62.0007 124.745C58.2219 127.758 53.875 133.068 51.3558 136.353C50.6643 137.267 51.3311 138.724 52.6648 138.453C52.6648 138.453 54.8382 138.008 55.3816 137.638C57.1598 136.477 61.161 129.512 64.3223 126.894C67.212 124.498 70.6697 123.757 71.954 125.684C73.3124 127.709 72.9666 130.376 72.9419 130.426C72.8678 131.068 72.2997 131.512 71.6823 131.414C70.7191 131.29 69.5336 131.216 68.3234 131.389C64.8904 131.858 63.6554 134.871 64.5199 136.674L64.5446 136.699C64.5446 136.699 64.5445 136.724 64.5692 136.724C65.7053 138.379 68.8667 138.774 71.0155 136.032C71.7317 135.094 72.2751 134.056 72.6456 133.192C72.8925 132.599 73.5347 132.352 74.1521 132.575C74.1768 132.575 76.3502 133.315 77.758 135.785C79.2152 138.304 76.3502 140.428 72.8184 141.713C69.0643 143.096 60.5682 142.874 58.9875 143.936C58.1725 144.479 56.987 145.961 56.987 145.961C56.2213 146.801 56.74 148.307 58.1231 148.134C62.2724 147.616 69.1137 146.455 73.4606 144.751C79.2893 142.454 80.8453 138.132 79.1412 135.168C78.7954 134.575 78.3508 134.081 77.8321 133.661L77.7334 133.562ZM72.0281 133.167C71.6823 133.711 70.7685 134.723 70.2251 135.143C69.2866 135.859 68.3234 136.427 67.533 136.403C66.5945 136.353 65.9029 135.267 66.3475 134.279C66.6686 133.538 67.5825 132.97 68.7186 132.525C69.3854 132.278 70.6944 131.982 71.3612 131.982C72.7937 131.957 72.5715 132.328 72.0281 133.167Z" fill="#D9C79E"/>
<path d="M84.3835 168.411L82.0371 168.362C81.0492 168.362 78.8264 168.287 77.4433 167.448C76.5048 166.855 75.2945 165.299 74.6277 164.336L73.788 163.051L72.5778 161.273C71.985 160.582 71.3182 159.989 70.5032 159.52C65.6129 156.704 58.1047 159.816 53.7332 170.535C50.3742 178.809 47.9538 191.034 46.6942 198.419C46.3484 200.494 48.4972 202.025 50.2754 200.296C50.2754 200.296 53.1897 197.481 53.7578 196.394C55.5361 192.911 56.1535 178.488 58.8703 171.449C61.3648 165.027 65.9834 160.508 69.4411 162.138C73.047 163.842 74.6277 168.238 74.6277 168.287C74.9982 169.349 74.5042 170.535 73.4916 171.029C71.9603 171.77 70.1079 172.832 68.4285 174.264C63.6123 178.315 64.1064 184.045 66.7985 185.947C66.8232 185.947 66.8231 185.971 66.8478 185.971C66.8725 185.971 66.8725 185.996 66.8972 185.996C69.8857 187.379 74.9982 184.86 76.0602 178.636C76.4307 176.512 76.4306 174.437 76.3072 172.758C76.2331 171.622 76.9987 170.609 78.0854 170.362C78.1348 170.362 81.963 169.349 86.0382 171.646C90.2122 174.017 87.5201 180.019 83.2227 185.403C78.6288 191.158 65.6623 199.135 64.0817 202.297C63.2666 203.927 62.6491 207.31 62.6491 207.31C62.1305 209.336 64.1063 211.114 66.0822 209.459C71.9356 204.618 81.395 196.172 86.6063 189.355C93.6205 180.167 92.5832 172.165 87.693 169.349C86.7051 168.781 85.643 168.485 84.5563 168.362L84.3835 168.411ZM75.4428 173.375C75.344 174.536 74.7759 176.932 74.2572 178.117C73.3928 180.118 72.4049 181.921 71.1453 182.662C69.6881 183.501 67.7863 182.538 67.6875 180.636C67.6135 179.204 68.552 177.45 69.9104 175.697C70.7254 174.66 72.479 172.955 73.4916 172.289C75.6403 170.831 75.6157 171.572 75.4428 173.375Z" fill="#D9C79E"/>
<path d="M93.7944 146.899L92.4113 146.8C91.8186 146.776 90.5095 146.677 89.6698 146.158C89.1018 145.813 88.3361 144.899 87.9163 144.331L87.3976 143.59L86.632 142.552C86.2615 142.157 85.8416 141.787 85.3477 141.515C82.3839 139.811 78.037 141.342 75.7648 147.196C74.0112 151.715 72.9492 158.483 72.4059 162.583C72.2577 163.719 73.5914 164.657 74.5793 163.719C74.5793 163.719 76.234 162.237 76.5304 161.644C77.4689 159.742 77.4196 151.691 78.8274 147.863C80.1117 144.355 82.705 141.96 84.8043 142.972C86.9777 144.034 88.0397 146.529 88.0397 146.554C88.2867 147.146 88.0398 147.813 87.447 148.06C86.5579 148.431 85.4959 148.974 84.5326 149.715C81.7912 151.839 82.2604 155.05 83.9152 156.21C83.9152 156.21 83.9398 156.21 83.9398 156.235L83.9646 156.26C85.7675 157.124 88.7066 155.865 89.1759 152.407C89.3241 151.221 89.2747 150.085 89.1512 149.122C89.0771 148.48 89.4969 147.937 90.1391 147.838C90.1638 147.838 92.4113 147.393 94.8811 148.801C97.4003 150.233 95.9925 153.518 93.6215 156.408C91.0776 159.495 83.6435 163.595 82.8038 165.299C82.3592 166.188 82.1122 168.066 82.1122 168.066C81.8652 169.177 83.0754 170.239 84.2116 169.375C87.5211 166.831 92.8805 162.385 95.7455 158.73C99.6231 153.79 98.7835 149.295 95.8197 147.591C95.2269 147.245 94.5848 147.047 93.9426 146.949L93.7944 146.899ZM88.6572 149.418C88.6325 150.061 88.3609 151.394 88.0892 152.037C87.6199 153.123 87.1012 154.111 86.385 154.482C85.5453 154.901 84.4091 154.309 84.2857 153.247C84.2116 152.432 84.7055 151.493 85.4465 150.555C85.891 149.987 86.879 149.097 87.4717 148.752C88.7066 148.011 88.7066 148.431 88.6572 149.418Z" fill="#D9C79E"/>
<path d="M161.616 147.097C160.752 147.764 159.961 148.554 159.393 149.542C156.578 154.432 159.739 161.891 170.433 166.263C178.361 169.523 190.785 172.042 198.293 173.277C200.837 173.697 201.627 171.178 200.17 169.696C200.17 169.696 197.947 167.078 196.416 166.065C193.477 164.139 178.213 163.768 171.372 161.125C164.95 158.631 159.591 154.803 162.011 150.653C164.358 146.603 168.186 145.541 168.235 145.516C169.297 145.17 170.483 145.664 170.977 146.677C171.718 148.208 172.755 149.987 174.138 151.641C178.189 156.458 183.869 156.062 185.771 153.37C185.771 153.346 185.796 153.346 185.796 153.321C185.796 153.296 185.82 153.296 185.82 153.271C187.203 150.283 184.734 145.072 178.534 143.985C176.361 143.615 174.237 143.614 172.508 143.738C171.372 143.812 170.359 143.046 170.137 141.96C170.137 141.91 169.273 137.317 171.52 134.032C173.669 130.87 179.967 132.451 185.351 136.748C191.229 141.441 199.058 153.593 202.343 155.717C203.381 156.383 207.308 157.322 207.308 157.322C209.728 157.915 210.815 155.494 209.481 153.889C204.665 148.134 196.416 138.798 189.352 133.34C180.189 126.301 172.137 127.363 169.322 132.278C168.853 133.093 168.581 133.958 168.408 134.847L168.26 136.995L168.186 138.527C168.087 139.712 167.84 141.663 167.321 142.651C166.556 144.059 164.679 145.245 163.814 145.739L161.814 146.973L161.616 147.097ZM173.101 144.874C174.311 144.948 176.682 145.516 177.917 146.01C179.991 146.825 181.671 147.887 182.338 149.172C183.227 150.876 182.066 152.679 180.387 152.679C178.954 152.679 177.201 151.617 175.422 150.332C174.385 149.567 172.681 147.788 172.014 146.825C170.952 145.343 170.557 144.701 173.101 144.874Z" fill="#D9C79E"/>
<path d="M142.722 133.217C142.228 133.637 141.759 134.131 141.413 134.723C139.709 137.687 141.265 142.009 147.093 144.306C151.415 146.01 158.282 147.171 162.431 147.69C163.839 147.863 164.357 146.356 163.567 145.516C163.567 145.516 162.406 144.034 161.566 143.491C159.986 142.429 151.49 142.651 147.735 141.268C144.228 139.984 141.339 137.86 142.796 135.341C144.228 132.871 146.377 132.155 146.402 132.13C147.019 131.883 147.661 132.155 147.908 132.747C148.279 133.637 148.798 134.649 149.538 135.588C151.662 138.329 154.849 137.934 155.985 136.279C155.985 136.279 155.985 136.255 156.009 136.255L156.034 136.23C156.874 134.427 155.664 131.414 152.231 130.944C151.02 130.772 149.835 130.846 148.872 130.969C148.229 131.043 147.686 130.623 147.612 129.981C147.612 129.957 147.266 127.264 148.6 125.239C149.884 123.313 153.342 124.078 156.232 126.449C159.393 129.067 163.394 136.032 165.172 137.193C165.74 137.564 167.889 138.008 167.889 138.008C169.223 138.304 169.89 136.823 169.198 135.909C166.679 132.649 162.332 127.339 158.553 124.301C153.638 120.374 149.119 121.263 147.414 124.227C147.143 124.721 146.945 125.239 146.846 125.758L146.698 127.042L146.624 127.956C146.525 128.648 146.352 129.833 146.031 130.426C145.562 131.29 144.475 132.031 143.981 132.352L142.821 133.143L142.722 133.217ZM149.193 131.587C149.859 131.587 151.169 131.883 151.835 132.13C152.971 132.55 153.885 133.143 154.206 133.884C154.651 134.871 153.959 135.958 153.021 136.008C152.23 136.057 151.267 135.464 150.329 134.748C149.761 134.328 148.872 133.315 148.526 132.772C147.982 131.932 147.76 131.562 149.193 131.587Z" fill="#D9C79E"/>
<path d="M135.978 167.991C134.892 168.115 133.83 168.411 132.842 168.979C127.952 171.795 126.914 179.822 133.928 188.985C139.14 195.801 148.599 204.223 154.453 209.089C156.428 210.719 158.379 208.966 157.886 206.94C157.886 206.94 157.268 203.557 156.453 201.927C154.872 198.765 141.906 190.788 137.312 185.033C133.015 179.649 130.322 173.623 134.496 171.276C138.572 168.979 142.4 169.967 142.449 169.992C143.561 170.239 144.326 171.252 144.228 172.388C144.104 174.067 144.104 176.142 144.475 178.266C145.561 184.465 150.649 186.984 153.637 185.626C153.662 185.626 153.662 185.601 153.687 185.601C153.712 185.601 153.712 185.576 153.736 185.576C156.428 183.675 156.922 177.945 152.106 173.894C150.402 172.462 148.574 171.4 147.043 170.659C146.031 170.165 145.537 168.979 145.907 167.917C145.932 167.868 147.488 163.472 151.094 161.767C154.551 160.137 159.17 164.657 161.664 171.079C164.381 178.093 164.999 192.541 166.777 196.024C167.345 197.11 170.259 199.926 170.259 199.926C172.038 201.655 174.211 200.124 173.841 198.049C172.581 190.664 170.161 178.439 166.802 170.165C162.455 159.471 154.946 156.334 150.032 159.149C149.217 159.619 148.55 160.212 147.957 160.903L146.747 162.681L145.907 163.966C145.215 164.929 144.03 166.51 143.091 167.078C141.733 167.917 139.51 167.991 138.498 167.991L136.151 168.041L135.978 167.991ZM147.043 171.869C148.056 172.536 149.809 174.24 150.624 175.277C152.007 177.031 152.921 178.784 152.847 180.217C152.748 182.143 150.847 183.107 149.389 182.242C148.154 181.526 147.167 179.723 146.277 177.698C145.759 176.512 145.191 174.117 145.092 172.956C144.944 171.177 144.919 170.437 147.043 171.869Z" fill="#D9C79E"/>
<path d="M126.641 146.504C125.999 146.603 125.357 146.801 124.764 147.146C121.8 148.851 120.961 153.37 124.838 158.285C127.728 161.941 133.063 166.386 136.372 168.93C137.508 169.795 138.694 168.757 138.471 167.621C138.471 167.621 138.2 165.744 137.78 164.855C136.94 163.126 129.506 159.051 126.962 155.964C124.566 153.074 123.159 149.789 125.702 148.357C128.172 146.949 130.42 147.393 130.445 147.393C131.087 147.492 131.507 148.035 131.432 148.678C131.309 149.616 131.235 150.777 131.408 151.962C131.877 155.395 134.791 156.655 136.619 155.815L136.644 155.791C136.644 155.791 136.668 155.791 136.668 155.766C138.323 154.63 138.768 151.419 136.051 149.27C135.088 148.529 134.026 147.986 133.137 147.616C132.544 147.369 132.297 146.726 132.544 146.109C132.569 146.084 133.606 143.59 135.779 142.528C137.854 141.515 140.472 143.911 141.756 147.418C143.164 151.271 143.115 159.323 144.053 161.2C144.35 161.792 146.004 163.274 146.004 163.274C147.017 164.188 148.326 163.274 148.178 162.138C147.659 158.038 146.572 151.271 144.819 146.751C142.547 140.898 138.2 139.366 135.236 141.071C134.742 141.342 134.322 141.713 133.952 142.108L133.186 143.145L132.667 143.886C132.247 144.454 131.482 145.368 130.914 145.714C130.074 146.208 128.765 146.331 128.172 146.356L126.789 146.455L126.641 146.504ZM133.063 148.332C133.631 148.678 134.619 149.567 135.088 150.135C135.853 151.073 136.347 152.037 136.249 152.827C136.125 153.914 134.989 154.506 134.149 154.062C133.433 153.691 132.914 152.703 132.445 151.617C132.173 150.975 131.902 149.641 131.877 148.999C131.852 148.011 131.852 147.616 133.063 148.332Z" fill="#D9C79E"/>
<path d="M116.827 46.7981C117.839 47.2179 118.926 47.4896 120.062 47.4896C125.693 47.4402 130.534 40.9693 128.954 29.5341C127.768 21.038 123.693 9.05942 120.976 1.94638C120.062 -0.449338 117.494 0.118722 116.926 2.14396C116.926 2.14396 115.789 5.40412 115.691 7.20708C115.518 10.7389 122.878 24.0759 124.063 31.3371C125.15 38.1291 124.533 44.6987 119.766 44.6987C115.073 44.6987 112.233 41.9326 112.208 41.9079C111.369 41.1669 111.196 39.8826 111.813 38.9441C112.752 37.5363 113.789 35.7333 114.505 33.7081C116.629 27.7806 113.418 23.0632 110.134 22.7916C110.109 22.7916 110.084 22.7916 110.084 22.7916C110.06 22.7916 110.035 22.7916 110.035 22.7916C106.75 23.1126 103.515 27.8547 105.713 33.7822C106.478 35.8568 107.565 37.6845 108.528 39.0923C109.17 40.0308 109.022 41.2904 108.182 42.0314C108.133 42.0808 104.626 45.1186 100.625 44.8222C96.8213 44.5506 95.0184 38.3266 96.0063 31.51C97.093 24.0512 103.638 11.1835 103.811 7.28117C103.86 6.04626 102.699 2.16869 102.699 2.16869C102.008 -0.227027 99.3653 0.0693186 98.649 2.02047C96.1051 9.05942 92.2028 20.9145 91.0667 29.7564C89.5848 41.2163 94.5985 47.6378 100.254 47.5884C101.193 47.5884 102.082 47.3908 102.922 47.0698L104.848 46.1065L106.207 45.3903C107.269 44.8964 109.096 44.106 110.208 44.0566C111.813 44.0072 113.789 45.0198 114.653 45.5138L116.728 46.6252L116.827 46.7981ZM109.096 38.0056C108.553 36.9189 107.861 34.5725 107.664 33.2635C107.343 31.0654 107.392 29.0649 108.158 27.8547C109.195 26.2246 111.319 26.3234 112.159 27.7806C112.875 29.0155 112.85 31.0654 112.628 33.2635C112.505 34.5479 111.813 36.9189 111.319 37.9809C110.578 39.611 110.257 40.2778 109.096 38.0056Z" fill="#D9C79E"/>
<path d="M114.379 70.1132C114.996 70.3355 115.639 70.4837 116.33 70.4837C119.763 70.459 122.702 66.9272 121.739 60.7279C121.023 56.1341 118.553 49.6385 116.923 45.7856C116.355 44.4766 114.799 44.7977 114.453 45.8844C114.453 45.8844 113.762 47.638 113.712 48.6259C113.589 50.5276 118.059 57.7642 118.775 61.6912C119.442 65.3712 119.047 68.9277 116.133 68.9524C113.292 68.9524 111.563 67.4706 111.539 67.4459C111.02 67.0507 110.921 66.3591 111.316 65.8404C111.885 65.0748 112.502 64.0869 112.946 63.0002C114.231 59.7894 112.304 57.2455 110.304 57.0973H110.279H110.254C108.254 57.2702 106.278 59.8635 107.612 63.0496C108.081 64.161 108.723 65.1736 109.316 65.9392C109.711 66.4332 109.612 67.1247 109.094 67.5446C109.069 67.5693 106.92 69.224 104.5 69.0759C102.178 68.9277 101.091 65.5688 101.709 61.8641C102.376 57.8136 106.377 50.8487 106.476 48.7247C106.5 48.0578 105.809 45.9585 105.809 45.9585C105.389 44.6742 103.784 44.8224 103.339 45.8844C101.783 49.7126 99.3873 56.1341 98.6957 60.9255C97.7819 67.1247 100.82 70.6072 104.253 70.5825C104.821 70.5825 105.364 70.4837 105.883 70.3108L107.044 69.7921L107.859 69.3969C108.501 69.1253 109.612 68.7055 110.279 68.6808C111.242 68.6561 112.453 69.1994 112.971 69.471L114.231 70.0638L114.379 70.1132ZM109.686 65.3465C109.365 64.7537 108.945 63.4941 108.822 62.7779C108.624 61.5924 108.649 60.5057 109.118 59.8388C109.736 58.9497 111.045 58.9991 111.539 59.7894C111.983 60.4562 111.959 61.5677 111.81 62.7532C111.736 63.4447 111.316 64.729 111.02 65.2971C110.6 66.2356 110.378 66.5814 109.686 65.3465Z" fill="#D9C79E"/>
<path d="M58.74 72.6818C59.6045 72.0149 60.3948 71.2245 60.9628 70.2366C63.7784 65.3464 60.6171 57.8876 49.9228 53.5161C41.9947 50.2559 29.5716 47.7367 22.0634 46.5018C19.5195 46.0819 18.7291 48.6011 20.1863 50.083C20.1863 50.083 22.4092 52.701 23.9404 53.7136C26.8795 55.6401 42.1429 56.0106 48.9842 58.6533C55.4058 61.1478 60.7653 64.976 58.3448 69.1253C55.9985 73.1757 52.1703 74.2377 52.121 74.2624C51.0589 74.6082 49.8734 74.1142 49.3794 73.1016C48.6385 71.5703 47.6012 69.7921 46.2181 68.1374C42.1676 63.3212 36.4871 63.7164 34.5853 66.4085C34.5853 66.4332 34.5606 66.4331 34.5606 66.4578C34.5606 66.4825 34.5359 66.4826 34.5359 66.5073C33.1528 69.4957 35.6226 74.707 41.8218 75.7937C43.9953 76.1642 46.1193 76.1642 47.8482 76.0407C48.9843 75.9666 49.9969 76.7322 50.2192 77.819C50.2192 77.8683 51.0836 82.4622 48.8361 85.747C46.6873 88.9084 40.3893 87.3278 35.0051 83.0303C29.127 78.3377 21.2978 66.1861 18.0129 64.0621C16.9756 63.3953 13.0486 62.4567 13.0486 62.4567C10.6282 61.864 9.54144 64.2844 10.8751 65.8898C15.6913 71.6445 23.9404 80.9803 31.0041 86.4386C40.167 93.4775 48.2187 92.4155 51.0342 87.5006C51.5035 86.6856 51.7752 85.8211 51.948 84.932L52.0962 82.7833L52.1703 81.252C52.2691 80.0665 52.5161 78.1153 53.0348 77.1274C53.8004 75.7196 55.6774 74.5341 56.5419 74.0401L58.5424 72.8052L58.74 72.6818ZM47.2554 74.9293C46.0452 74.8552 43.6742 74.2871 42.4393 73.7932C40.3646 72.9781 38.6851 71.9161 38.0183 70.6318C37.1292 68.9276 38.29 67.1247 39.9695 67.1247C41.402 67.1247 43.1555 68.1867 44.9338 69.471C45.9711 70.2366 47.6753 72.0149 48.3422 72.9782C49.4042 74.46 49.7993 75.0775 47.2554 74.9293Z" fill="#D9C79E"/>
<path d="M77.632 86.5623C78.1259 86.1425 78.5952 85.6485 78.941 85.0557C80.6451 82.0919 79.0892 77.7698 73.2604 75.4729C68.9383 73.7687 62.0722 72.6079 57.9229 72.0892C56.5151 71.9163 55.9965 73.4229 56.7868 74.2627C56.7868 74.2627 57.9476 75.7446 58.7873 76.2879C60.368 77.3499 68.8642 77.1276 72.6183 78.5107C76.1254 79.795 79.0151 81.919 77.5579 84.4383C76.1254 86.9081 73.9767 87.6243 73.952 87.649C73.3345 87.896 72.6923 87.6243 72.4454 87.0316C72.0749 86.1425 71.5562 85.1299 70.8153 84.1913C68.6912 81.4498 65.5052 81.845 64.3691 83.4998C64.3691 83.4998 64.3691 83.5244 64.3444 83.5244L64.3197 83.5492C63.48 85.3521 64.6902 88.3652 68.1232 88.8345C69.3334 89.0074 70.519 88.9333 71.4822 88.8099C72.1243 88.7358 72.6676 89.1556 72.7417 89.7978C72.7417 89.8225 73.0875 92.5145 71.7538 94.5398C70.4695 96.4662 67.0118 95.7006 64.1221 93.3296C60.9608 90.7116 56.9597 83.7467 55.1814 82.5859C54.6134 82.2154 52.4646 81.7709 52.4646 81.7709C51.1309 81.4745 50.4641 82.9564 51.1556 83.8702C53.6748 87.1304 58.0217 92.4404 61.8005 95.4783C66.7154 99.4053 71.2352 98.5162 72.9394 95.5524C73.211 95.0584 73.4086 94.5398 73.5074 94.0211L73.6556 92.7368L73.7297 91.823C73.8285 91.1315 74.0014 89.946 74.3224 89.3532C74.7917 88.4888 75.8784 87.7478 76.3723 87.4268L77.5332 86.6364L77.632 86.5623ZM71.1611 88.1924C70.4942 88.1924 69.1852 87.896 68.5184 87.649C67.3823 87.2292 66.4685 86.6364 66.1474 85.8954C65.7028 84.9075 66.3943 83.8208 67.3328 83.7714C68.1232 83.722 69.0865 84.3148 70.025 85.0311C70.5931 85.4509 71.4821 86.4635 71.8279 87.0069C72.3713 87.8713 72.5936 88.2171 71.1611 88.1924Z" fill="#D9C79E"/>
<path d="M84.3609 51.7874C85.4476 51.6639 86.5096 51.3675 87.4975 50.7994C92.3877 47.9838 93.4251 39.957 86.4108 30.794C81.1995 23.9773 71.7402 15.5553 65.8867 10.6898C63.9109 9.05971 61.9598 10.8133 62.4537 12.8385C62.4537 12.8385 63.0711 16.2221 63.8862 17.8522C65.4668 21.0136 78.4333 28.991 83.0272 34.7457C87.3246 40.1299 90.0167 46.1562 85.8427 48.5025C81.7675 50.7994 77.9394 49.8115 77.89 49.7868C76.7786 49.5399 76.013 48.5272 76.1117 47.3911C76.2352 45.7117 76.2352 43.637 75.8647 41.513C74.778 35.3138 69.6902 32.7946 66.7017 34.153C66.677 34.153 66.677 34.1776 66.6523 34.1776C66.6276 34.1776 66.6277 34.2023 66.603 34.2023C63.9109 36.1041 63.4169 41.8341 68.2331 45.8845C69.9372 47.317 71.7649 48.379 73.2961 49.12C74.3088 49.6139 74.8027 50.7994 74.4322 51.8615C74.4075 51.9109 72.8516 56.3071 69.2457 58.0113C65.788 59.6414 61.1693 55.1216 58.6748 48.7001C55.9581 41.6859 55.3407 27.2375 53.5624 23.7551C52.9943 22.6683 50.08 19.8528 50.08 19.8528C48.3017 18.1239 46.1282 19.6552 46.4987 21.7298C47.7583 29.1146 50.1787 41.3401 53.5377 49.6139C57.8845 60.3082 65.3928 63.4449 70.3077 60.6293C71.1227 60.16 71.7896 59.5673 72.3823 58.8757L73.5925 57.0974L74.4322 55.8131C75.1238 54.8499 76.3093 53.2692 77.2478 52.7012C78.6062 51.8615 80.829 51.7874 81.8416 51.7874L84.188 51.738L84.3609 51.7874ZM73.2961 47.9098C72.2835 47.2429 70.5299 45.5388 69.7149 44.5015C68.3318 42.7479 67.418 40.9943 67.4921 39.5618C67.5909 37.6354 69.4926 36.6721 70.9498 37.5366C72.1847 38.2528 73.1726 40.0558 74.0618 42.081C74.5804 43.2665 75.1485 45.6622 75.2473 46.823C75.3955 48.6013 75.4202 49.3423 73.2961 47.9098Z" fill="#D9C79E"/>
<path d="M93.7055 73.2992C94.3476 73.2004 94.9897 73.0028 95.5825 72.657C98.5463 70.9529 99.386 66.4331 95.5084 61.5182C92.6187 57.8629 87.284 53.4172 83.9744 50.8733C82.8383 50.0089 81.6528 51.0462 81.8751 52.1823C81.8751 52.1823 82.1468 54.0594 82.5666 54.9485C83.4064 56.6774 90.8405 60.7525 93.3844 63.8398C95.7801 66.7295 97.1879 70.0144 94.644 71.4468C92.1742 72.8546 89.9267 72.41 89.902 72.41C89.2598 72.3112 88.84 71.7679 88.9141 71.1258C89.0375 70.1872 89.1116 69.0264 88.9387 67.8409C88.4694 64.4078 85.5551 63.1483 83.7274 63.988L83.7027 64.0127C83.7027 64.0127 83.6781 64.0127 83.6781 64.0374C82.0233 65.1735 81.5787 68.3843 84.2955 70.533C85.2588 71.274 86.3208 71.8173 87.2099 72.1878C87.8026 72.4347 88.0496 73.0769 87.8026 73.6944C87.7779 73.7191 86.7406 76.2135 84.5672 77.2756C82.4925 78.2882 79.8746 75.8925 78.5903 72.3854C77.1825 68.5325 77.2318 60.4809 76.2933 58.6038C75.9969 58.0111 74.3422 56.5292 74.3422 56.5292C73.3296 55.6154 72.0206 56.5292 72.1688 57.6653C72.7121 61.7652 73.7741 68.5325 75.5277 73.0522C77.7999 78.9056 82.1468 80.4369 85.1105 78.7327C85.6045 78.4611 86.0243 78.0906 86.3948 77.6955L87.1605 76.6581L87.6792 75.9172C88.099 75.3491 88.8646 74.4353 89.4327 74.0895C90.2724 73.5955 91.5815 73.4721 92.1742 73.4474L93.5573 73.3486L93.7055 73.2992ZM87.284 71.4468C86.7159 71.1011 85.728 70.2119 85.2587 69.6439C84.4931 68.7053 83.9991 67.7421 84.0979 66.9518C84.2214 65.8651 85.3575 65.2723 86.1973 65.7169C86.9135 66.0873 87.4322 67.0752 87.9014 68.162C88.1731 68.8041 88.4448 70.1378 88.4695 70.7799C88.4942 71.7679 88.4942 72.1878 87.284 71.4468Z" fill="#D9C79E"/>
<path d="M161.581 73.1747L163.581 74.4096C164.446 74.9036 166.323 76.0891 167.089 77.4969C167.607 78.4848 167.854 80.436 167.953 81.6215L168.027 83.1528L168.175 85.3015C168.324 86.1906 168.62 87.0551 169.089 87.8701C171.905 92.7603 179.956 93.8471 189.119 86.8081C196.183 81.3745 204.432 72.0139 209.248 66.2593C210.582 64.6539 209.495 62.2335 207.075 62.8263C207.075 62.8263 203.148 63.7895 202.11 64.4317C198.826 66.531 191.021 78.7071 185.118 83.3998C179.734 87.6972 173.461 89.2779 171.287 86.1166C169.015 82.807 169.88 78.2378 169.904 78.1884C170.102 77.077 171.139 76.3114 172.275 76.4102C173.979 76.5336 176.103 76.5584 178.302 76.1632C184.501 75.0765 186.971 69.8899 185.587 66.8767C185.587 66.852 185.563 66.8521 185.563 66.8274C185.563 66.8027 185.538 66.8026 185.538 66.7779C183.636 64.0858 177.98 63.6907 173.905 68.5068C172.522 70.1616 171.485 71.9398 170.744 73.4711C170.25 74.4837 169.064 74.9777 168.002 74.6319C167.953 74.6072 164.125 73.5452 161.779 69.4947C159.358 65.3455 164.718 61.5172 171.139 59.0227C178.005 56.38 193.244 56.0096 196.183 54.0831C197.714 53.0705 199.937 50.4525 199.937 50.4525C201.394 48.9459 200.604 46.4514 198.06 46.8713C190.552 48.1062 178.153 50.6254 170.201 53.8855C159.506 58.2818 156.37 65.716 159.161 70.6062C159.729 71.5941 160.494 72.3844 161.383 73.0513L161.581 73.1747ZM171.806 73.3723C172.473 72.4338 174.177 70.6308 175.214 69.8652C176.968 68.5809 178.746 67.5189 180.179 67.5189C181.858 67.5189 183.019 69.2971 182.13 71.026C181.463 72.3103 179.783 73.3476 177.709 74.1873C176.474 74.6813 174.103 75.2493 172.893 75.3234C170.349 75.4716 170.744 74.8542 171.806 73.3723Z" fill="#D9C79E"/>
<path d="M142.614 87.0059L143.774 87.7963C144.268 88.1173 145.355 88.8583 145.824 89.7227C146.145 90.3155 146.343 91.4763 146.417 92.1925L146.491 93.1063L146.639 94.3906C146.763 94.9093 146.936 95.4527 147.207 95.922C148.912 98.9104 153.431 99.7749 158.346 95.8479C162.125 92.8347 166.472 87.5246 168.991 84.2397C169.683 83.3259 169.016 81.8687 167.682 82.1404C167.682 82.1404 165.509 82.585 164.965 82.9555C163.187 84.1163 159.186 91.0811 156.025 93.6991C153.135 96.0948 149.677 96.8358 148.393 94.9093C147.034 92.8841 147.38 90.2167 147.405 90.1673C147.479 89.5251 148.047 89.0806 148.665 89.1794C149.628 89.3028 150.813 89.377 152.023 89.2041C155.457 88.7348 156.691 85.7216 155.827 83.9187L155.802 83.8939C155.802 83.8939 155.802 83.8693 155.778 83.8693C154.642 82.2145 151.48 81.8193 149.331 84.5608C148.615 85.4994 148.072 86.5367 147.701 87.4011C147.454 87.9938 146.812 88.2408 146.195 88.0185C146.17 88.0185 143.997 87.2776 142.589 84.8078C141.132 82.2886 143.997 80.1645 147.528 78.8802C151.283 77.4971 159.779 77.7194 161.359 76.6574C162.174 76.1141 163.36 74.6322 163.36 74.6322C164.126 73.7924 163.607 72.2859 162.224 72.4588C158.075 72.9774 151.233 74.1382 146.886 75.8424C141.058 78.1393 139.502 82.4615 141.206 85.4253C141.552 86.018 141.996 86.512 142.515 86.9318L142.614 87.0059ZM148.319 87.4258C148.665 86.8825 149.578 85.8698 150.122 85.4499C151.06 84.7337 152.024 84.1657 152.814 84.1904C153.752 84.2398 154.444 85.3264 153.999 86.3144C153.678 87.0553 152.764 87.6233 151.628 88.0679C150.961 88.3149 149.653 88.6113 148.986 88.6113C147.553 88.6113 147.775 88.2655 148.319 87.4258Z" fill="#D9C79E"/>
<path d="M135.98 52.1824L138.327 52.2317C139.315 52.2317 141.537 52.3058 142.921 53.1456C143.859 53.7383 145.069 55.2943 145.736 56.2575L146.576 57.5418L147.786 59.3201C148.379 60.0116 149.046 60.6044 149.861 61.0736C154.751 63.8892 162.259 60.7773 166.631 50.0583C169.99 41.7845 172.41 29.5589 173.67 22.1742C174.015 20.0995 171.867 18.5683 170.088 20.2971C170.088 20.2971 167.174 23.1127 166.606 24.1994C164.828 27.6819 164.21 42.1055 161.494 49.1445C158.999 55.566 154.38 60.0857 150.923 58.4556C147.317 56.7515 145.736 52.3552 145.736 52.3058C145.366 51.2438 145.86 50.0583 146.872 49.5643C148.404 48.8234 150.256 47.7614 151.935 46.3289C156.751 42.2784 156.257 36.5485 153.565 34.6467C153.541 34.6467 153.541 34.622 153.516 34.622C153.491 34.622 153.491 34.5973 153.467 34.5973C150.478 33.2142 145.366 35.7334 144.304 41.9573C143.933 44.0814 143.933 46.156 144.057 47.8355C144.131 48.9716 143.365 49.9842 142.278 50.2312C142.229 50.2312 138.401 51.2438 134.326 48.9469C130.152 46.5759 132.844 40.5742 137.141 35.1901C141.735 29.4354 154.702 21.4579 156.282 18.2966C157.097 16.6665 157.715 13.2829 157.715 13.2829C158.233 11.2576 156.257 9.47935 154.282 11.1341C148.428 15.9749 138.969 24.4217 133.758 31.2384C126.743 40.426 127.781 48.4282 132.671 51.2438C133.659 51.8119 134.721 52.1082 135.807 52.2317L135.98 52.1824ZM144.921 47.1933C145.02 46.0325 145.588 43.6368 146.107 42.4513C146.971 40.4508 147.959 38.6478 149.219 37.9068C150.676 37.0671 152.577 38.0303 152.676 39.9321C152.75 41.3646 151.812 43.1181 150.453 44.8717C149.638 45.909 147.885 47.6132 146.872 48.2801C144.723 49.7619 144.748 48.9963 144.921 47.1933Z" fill="#D9C79E"/>
<path d="M126.574 73.6943L127.957 73.793C128.55 73.8177 129.859 73.9165 130.699 74.4352C131.267 74.781 132.033 75.6948 132.453 76.2628L132.971 77.0038L133.737 78.0411C134.107 78.4363 134.527 78.8068 135.021 79.0785C137.985 80.7826 142.332 79.2513 144.604 73.3978C146.358 68.8781 147.42 62.1109 147.963 58.011C148.111 56.8749 146.777 55.9363 145.789 56.8749C145.789 56.8749 144.135 58.3567 143.838 58.9495C142.9 60.8512 142.949 68.9028 141.541 72.731C140.257 76.2382 137.664 78.6339 135.565 77.6213C133.391 76.5593 132.329 74.0647 132.329 74.04C132.082 73.4473 132.329 72.7805 132.922 72.5335C133.811 72.163 134.873 71.6196 135.836 70.8787C138.578 68.7546 138.108 65.5439 136.454 64.3831C136.454 64.3831 136.429 64.3831 136.429 64.3584L136.404 64.3337C134.601 63.4693 131.662 64.7289 131.193 68.1866C131.045 69.3721 131.094 70.5082 131.218 71.4714C131.292 72.1136 130.872 72.657 130.23 72.7557C130.205 72.7557 127.957 73.2003 125.488 71.7925C122.968 70.36 124.376 67.0752 126.747 64.1855C129.291 61.0983 136.725 56.9984 137.565 55.2942C138.01 54.4051 138.257 52.528 138.257 52.528C138.504 51.4166 137.293 50.3546 136.157 51.219C132.848 53.7629 127.488 58.2086 124.623 61.8639C120.746 66.8035 121.585 71.2986 124.549 73.0027C125.142 73.3485 125.784 73.5461 126.426 73.6448L126.574 73.6943ZM131.712 71.1504C131.736 70.5082 132.008 69.1745 132.28 68.5323C132.749 67.4456 133.268 66.4577 133.984 66.0872C134.824 65.6674 135.96 66.2601 136.083 67.3221C136.157 68.1372 135.663 69.0757 134.922 70.0142C134.478 70.5823 133.49 71.4714 132.897 71.8172C131.662 72.5829 131.662 72.163 131.712 71.1504Z" fill="#D9C79E"/>
<path d="M139.207 103.925C135.23 103.332 132.983 105.036 132.958 106.987C132.958 107.481 133.106 107.975 133.329 108.395C131.995 107.901 129.896 107.16 128.29 106.938C126.141 106.617 124.931 107.531 124.907 108.593C124.907 108.938 125.03 109.284 125.228 109.556C125.228 109.556 125.524 110.173 125.549 110.47C125.549 110.865 125.203 111.384 125.203 111.384C125.03 111.655 124.882 111.976 124.882 112.322C124.882 113.384 126.067 114.323 128.216 114.051C129.723 113.878 131.797 113.211 133.156 112.742C133.008 113.088 132.909 113.458 132.909 113.853C132.884 115.804 135.107 117.533 139.083 117.039C142.047 116.694 146.221 115.335 148.715 114.446C149.555 114.15 149.382 113.236 148.666 113.038C148.666 113.038 147.555 112.618 146.912 112.569C145.702 112.495 141.01 114.965 138.49 115.311C136.119 115.656 133.847 115.385 133.872 113.73C133.897 112.1 134.885 111.137 134.885 111.112C135.156 110.816 135.601 110.766 135.922 110.988C136.416 111.334 137.033 111.68 137.725 111.952C139.775 112.717 141.43 111.631 141.528 110.494V110.47V110.445C141.43 109.309 139.799 108.148 137.75 108.864C137.033 109.111 136.391 109.482 135.897 109.803C135.576 110.025 135.132 109.951 134.885 109.655C134.86 109.63 133.823 108.395 133.971 107.012C134.094 105.703 136.268 105.11 138.614 105.481C141.183 105.901 145.628 108.272 146.962 108.346C147.382 108.37 148.74 108 148.74 108C149.58 107.778 149.481 106.864 148.814 106.592C146.344 105.802 142.269 104.369 139.207 103.925ZM126.685 110.322C126.882 110.223 127.327 110.099 127.574 110.075C127.994 110.025 128.364 110.025 128.587 110.198C128.883 110.396 128.858 110.791 128.587 110.939C128.34 111.062 127.969 111.062 127.549 111.013C127.302 110.988 126.858 110.84 126.66 110.741C126.364 110.593 126.24 110.519 126.685 110.322ZM134.119 110.47C134.119 111.013 133.748 111.705 133.576 112.001C133.526 111.952 133.477 111.927 133.403 111.902C133.403 111.902 132.785 111.68 132.464 111.655C131.797 111.606 129.278 112.94 127.895 113.137C126.611 113.31 125.376 113.187 125.4 112.273C125.425 111.384 125.944 110.865 125.944 110.865C126.092 110.717 126.314 110.692 126.512 110.791C126.784 110.964 127.105 111.161 127.475 111.309C128.587 111.729 129.476 111.137 129.55 110.519C129.5 109.902 128.611 109.284 127.5 109.679C127.105 109.828 126.759 110.025 126.487 110.198C126.314 110.322 126.067 110.272 125.944 110.124C125.944 110.124 125.376 109.432 125.45 108.691C125.524 107.975 126.685 107.654 127.969 107.876C129.377 108.099 131.773 109.383 132.489 109.432C132.711 109.457 133.452 109.235 133.452 109.235C133.576 109.21 133.65 109.161 133.699 109.087C133.847 109.457 134.119 110.075 134.119 110.47ZM136.243 110.149C136.613 109.976 137.428 109.729 137.898 109.679C138.663 109.581 139.355 109.605 139.775 109.877C140.343 110.247 140.293 110.988 139.775 111.26C139.33 111.507 138.639 111.482 137.873 111.384C137.428 111.334 136.613 111.062 136.243 110.914C135.675 110.643 135.453 110.544 136.243 110.149Z" fill="#D9C79E"/>
<path d="M71.2535 106.74C70.5867 106.987 70.4879 107.925 71.3276 108.148C71.3276 108.148 72.686 108.518 73.1059 108.493C74.4643 108.419 78.8852 106.048 81.4538 105.628C83.8001 105.233 85.9735 105.826 86.097 107.16C86.2205 108.543 85.1832 109.778 85.1832 109.802C84.9362 110.099 84.4917 110.173 84.1706 109.951C83.6766 109.63 83.0345 109.259 82.3182 109.012C80.2436 108.296 78.6382 109.432 78.5394 110.593V110.617V110.642C78.6629 111.778 80.3177 112.865 82.343 112.099C83.0345 111.828 83.652 111.482 84.1459 111.136C84.467 110.914 84.9115 110.963 85.1832 111.26C85.1832 111.284 86.1712 112.248 86.1959 113.878C86.2205 115.532 83.9483 115.804 81.5773 115.458C79.0581 115.088 74.3655 112.618 73.1553 112.717C72.5131 112.766 71.4017 113.186 71.4017 113.186C70.7102 113.384 70.5126 114.298 71.3523 114.594C73.8221 115.483 78.0208 116.841 80.9846 117.187C84.961 117.656 87.1838 115.952 87.1591 114.001C87.1591 113.606 87.0603 113.236 86.9121 112.89C88.2705 113.359 90.3451 114.026 91.8517 114.199C94.0005 114.47 95.2107 113.532 95.186 112.47C95.186 112.124 95.0378 111.803 94.8649 111.531C94.8649 111.531 94.5191 111.013 94.5191 110.617C94.5191 110.296 94.8402 109.704 94.8402 109.704C95.0131 109.432 95.1613 109.086 95.1613 108.74C95.1613 107.678 93.9264 106.765 91.7776 107.086C90.1723 107.333 88.0729 108.049 86.7392 108.543C86.9615 108.123 87.1097 107.629 87.1097 107.135C87.085 105.184 84.8374 103.48 80.8611 104.073C77.7738 104.369 73.6987 105.801 71.2535 106.74ZM93.3583 110.741C93.1607 110.84 92.7162 110.963 92.4692 111.013C92.0493 111.062 91.6788 111.087 91.4318 110.939C91.1602 110.79 91.1355 110.395 91.4318 110.198C91.6541 110.049 92.0246 110.025 92.4445 110.074C92.6914 110.099 93.136 110.222 93.3336 110.321C93.8029 110.519 93.6793 110.593 93.3583 110.741ZM86.3688 109.086C86.4182 109.16 86.4923 109.21 86.6158 109.234C86.6158 109.234 87.3567 109.432 87.5789 109.432C88.3199 109.383 90.7156 108.123 92.0987 107.876C93.383 107.678 94.5438 107.975 94.6179 108.691C94.692 109.432 94.1239 110.099 94.1239 110.124C93.9757 110.296 93.7534 110.321 93.5805 110.198C93.3089 110.025 92.9631 109.827 92.5679 109.679C91.4565 109.284 90.5674 109.901 90.518 110.519C90.5921 111.136 91.4812 111.729 92.5926 111.309C92.9631 111.161 93.3089 110.963 93.5559 110.79C93.7288 110.667 93.9757 110.692 94.1239 110.864C94.1239 110.864 94.6673 111.408 94.6673 112.272C94.692 113.161 93.4571 113.31 92.1728 113.137C90.8144 112.939 88.2705 111.605 87.6037 111.655C87.2579 111.68 86.6651 111.902 86.6651 111.902C86.591 111.927 86.5416 111.951 86.4922 112.001C86.3193 111.704 85.9489 111.013 85.9489 110.469C85.9242 110.099 86.1959 109.457 86.3688 109.086ZM83.8001 110.914C83.4297 111.087 82.6146 111.334 82.1701 111.383C81.4044 111.482 80.7129 111.507 80.2683 111.26C79.7497 110.963 79.725 110.247 80.2683 109.877C80.6882 109.605 81.3797 109.58 82.1453 109.679C82.5899 109.728 83.405 109.975 83.8001 110.148C84.5905 110.543 84.3682 110.667 83.8001 110.914Z" fill="#D9C79E"/>
<path d="M113.733 71.8419C113.486 71.1751 112.547 71.0763 112.325 71.916C112.325 71.916 111.954 73.2744 111.979 73.6943C112.053 75.0527 114.424 79.4736 114.844 82.0422C115.239 84.3885 114.647 86.5619 113.313 86.6854C111.93 86.8089 110.695 85.7716 110.67 85.7716C110.374 85.5246 110.3 85.08 110.522 84.759C110.843 84.265 111.214 83.6229 111.461 82.9066C112.177 80.832 111.041 79.2266 109.88 79.1278H109.855H109.83C108.694 79.2513 107.608 80.9061 108.373 82.9313C108.645 83.6229 108.991 84.2404 109.336 84.7343C109.559 85.0554 109.509 85.4999 109.213 85.7716C109.188 85.7716 108.225 86.7595 106.595 86.7842C104.94 86.8089 104.669 84.5367 105.014 82.1657C105.385 79.6465 107.855 74.9539 107.756 73.7436C107.706 73.1015 107.287 71.9901 107.287 71.9901C107.089 71.2986 106.175 71.1009 105.879 71.9407C104.99 74.4105 103.631 78.6091 103.285 81.5729C102.792 85.5493 104.52 87.7721 106.471 87.7474C106.867 87.7474 107.237 87.6487 107.583 87.5005C107.114 88.8589 106.447 90.9335 106.274 92.4401C106.002 94.5888 106.941 95.799 108.003 95.7743C108.349 95.7743 108.67 95.6262 108.941 95.4533C108.941 95.4533 109.46 95.1075 109.855 95.1075C110.176 95.1075 110.769 95.4286 110.769 95.4286C111.041 95.6014 111.386 95.7496 111.732 95.7496C112.794 95.7496 113.708 94.5147 113.387 92.366C113.14 90.7606 112.424 88.6613 111.93 87.3276C112.35 87.5499 112.844 87.698 113.338 87.698C115.289 87.6733 116.993 85.4258 116.4 81.4494C116.104 78.3622 114.671 74.2623 113.733 71.8419ZM109.732 93.9467C109.633 93.7491 109.509 93.3045 109.46 93.0576C109.411 92.6377 109.411 92.2672 109.534 92.0202C109.682 91.7485 110.077 91.7238 110.275 92.0202C110.423 92.2425 110.448 92.613 110.398 93.0328C110.374 93.2798 110.25 93.7243 110.152 93.9219C109.954 94.3665 109.88 94.243 109.732 93.9467ZM111.386 86.9571C111.312 87.0065 111.263 87.0806 111.238 87.2041C111.238 87.2041 111.041 87.945 111.041 88.1673C111.09 88.9083 112.35 91.3039 112.597 92.687C112.794 93.9713 112.498 95.1322 111.782 95.2063C111.041 95.2804 110.374 94.7123 110.349 94.7123C110.176 94.5641 110.152 94.3418 110.275 94.1689C110.448 93.8972 110.645 93.5515 110.794 93.1563C111.189 92.0449 110.571 91.1558 109.954 91.1064C109.336 91.1805 108.744 92.0696 109.164 93.181C109.312 93.5515 109.509 93.8973 109.682 94.1443C109.806 94.3172 109.781 94.5641 109.608 94.7123C109.608 94.7123 109.065 95.2556 108.2 95.2556C107.311 95.2803 107.163 94.0455 107.336 92.7612C107.534 91.4028 108.867 88.8589 108.818 88.192C108.793 87.8463 108.571 87.2535 108.571 87.2535C108.546 87.1794 108.521 87.13 108.472 87.0806C108.768 86.9077 109.435 86.5372 110.003 86.5372C110.399 86.5125 111.016 86.7842 111.386 86.9571ZM109.559 84.3885C109.386 84.018 109.139 83.203 109.089 82.7584C108.991 81.9928 108.966 81.3013 109.213 80.8567C109.509 80.338 110.226 80.3133 110.596 80.8567C110.868 81.2766 110.892 81.9681 110.794 82.7337C110.744 83.1783 110.497 83.9933 110.324 84.3885C109.954 85.1789 109.83 84.9566 109.559 84.3885Z" fill="#D9C79E"/>
<path d="M145.348 94.3914C145.818 93.8233 145.422 92.9836 144.583 93.2059C144.583 93.2059 143.224 93.5517 142.879 93.7986C141.742 94.5396 139.1 98.8124 137.075 100.467C135.222 101.974 133.049 102.566 132.283 101.48C131.493 100.344 131.764 98.7629 131.764 98.7383C131.839 98.3431 132.184 98.0714 132.579 98.0961C133.172 98.1208 133.913 98.1208 134.654 97.9726C136.803 97.5774 137.618 95.7498 137.149 94.7125C137.149 94.7125 137.149 94.7125 137.149 94.6878C137.149 94.6878 137.149 94.6878 137.149 94.6631C136.482 93.7246 134.506 93.6257 133.123 95.3299C132.654 95.898 132.308 96.5401 132.061 97.0588C131.888 97.4046 131.493 97.6021 131.122 97.4786C131.098 97.4786 129.764 97.1329 128.949 95.7251C128.084 94.2926 129.937 92.9342 132.135 92.0451C134.506 91.0819 139.791 90.8843 140.804 90.1927C141.323 89.847 142.088 88.9084 142.088 88.9084C142.582 88.3897 142.31 87.5253 141.421 87.6735C138.828 88.1428 134.531 89.0813 131.789 90.2421C128.109 91.8228 127.047 94.4161 128.06 96.0955C128.257 96.4413 128.529 96.713 128.85 96.9353C127.418 97.2069 125.318 97.6762 123.91 98.269C121.91 99.1334 121.342 100.541 121.885 101.455C122.058 101.751 122.354 101.974 122.651 102.097C122.651 102.097 123.219 102.369 123.392 102.715C123.54 102.986 123.589 103.678 123.589 103.678C123.565 104.024 123.614 104.369 123.812 104.666C124.355 105.58 125.862 105.752 127.566 104.419C128.825 103.406 130.307 101.727 131.196 100.615C131.221 101.109 131.32 101.579 131.592 102.023C132.604 103.703 135.395 104.048 138.532 101.554C140.903 99.7015 143.718 96.4166 145.348 94.3914ZM124.231 102.023C124.355 101.85 124.676 101.504 124.874 101.356C125.195 101.109 125.541 100.912 125.812 100.912C126.133 100.912 126.356 101.233 126.183 101.554C126.059 101.801 125.738 101.998 125.368 102.171C125.145 102.27 124.701 102.394 124.478 102.394C123.96 102.418 124.034 102.295 124.231 102.023ZM131.122 99.9484C131.048 99.9237 130.949 99.9237 130.826 99.9484C130.826 99.9484 130.085 100.146 129.887 100.27C129.27 100.665 127.837 102.986 126.751 103.875C125.738 104.691 124.577 105.012 124.157 104.419C123.713 103.801 123.861 102.937 123.886 102.937C123.91 102.739 124.108 102.591 124.33 102.591C124.651 102.616 125.047 102.616 125.466 102.517C126.627 102.295 127.072 101.307 126.825 100.764C126.454 100.27 125.392 100.195 124.651 101.109C124.404 101.43 124.207 101.751 124.059 102.048C123.96 102.245 123.738 102.344 123.54 102.27C123.54 102.27 122.799 102.072 122.354 101.332C121.885 100.566 122.898 99.8249 124.083 99.331C125.368 98.8123 128.233 98.7135 128.776 98.3431C129.072 98.1455 129.467 97.6515 129.467 97.6515C129.517 97.6021 129.542 97.528 129.566 97.4786C129.863 97.6515 130.53 98.0467 130.801 98.5407C130.974 98.8618 131.073 99.5286 131.122 99.9484ZM132.407 97.0588C132.629 96.7377 133.222 96.0956 133.567 95.8239C134.185 95.3546 134.778 94.9842 135.272 94.9842C135.864 94.9842 136.259 95.6016 135.963 96.1944C135.741 96.6389 135.173 97.0094 134.457 97.3058C134.037 97.4787 133.222 97.7009 132.802 97.7256C131.913 97.7997 132.061 97.5775 132.407 97.0588Z" fill="#D9C79E"/>
<path d="M132.579 78.9303C132.703 78.214 131.937 77.6954 131.32 78.2881C131.32 78.2881 130.307 79.276 130.134 79.6465C129.517 80.8567 129.369 85.8704 128.43 88.3155C127.59 90.5631 125.985 92.1437 124.799 91.5757C123.54 90.9829 122.996 89.4763 122.972 89.4516C122.848 89.0811 122.996 88.686 123.367 88.4884C123.91 88.2168 124.528 87.8463 125.12 87.3523C126.775 85.9199 126.602 83.944 125.664 83.3018C125.664 83.3018 125.664 83.3018 125.639 83.3018C125.639 83.3018 125.639 83.3018 125.614 83.3018C124.577 82.8326 122.799 83.7217 122.453 85.8704C122.33 86.6114 122.33 87.3276 122.379 87.9203C122.404 88.3155 122.157 88.6613 121.762 88.7601C121.737 88.7601 120.428 89.1306 118.995 88.3402C117.538 87.5252 118.452 85.4259 119.934 83.5488C121.515 81.5483 125.985 78.7327 126.528 77.6213C126.8 77.0532 126.997 75.8677 126.997 75.8677C127.17 75.1514 126.479 74.5587 125.812 75.1268C123.787 76.8309 120.551 79.77 118.748 82.1657C116.353 85.3765 116.723 88.1427 118.427 89.1059C118.773 89.3035 119.144 89.4022 119.539 89.4516C118.452 90.3901 116.847 91.872 115.933 93.0822C114.624 94.8111 114.846 96.3177 115.76 96.8364C116.056 97.0093 116.402 97.0586 116.748 97.0339C116.748 97.0339 117.365 96.9845 117.711 97.1821C117.983 97.3303 118.353 97.9231 118.353 97.9231C118.501 98.2195 118.724 98.5159 119.02 98.6887C119.934 99.2074 121.342 98.6146 122.157 96.5894C122.749 95.0828 123.169 92.8847 123.416 91.4769C123.688 91.8967 124.009 92.2425 124.454 92.4895C126.158 93.4527 128.751 92.3413 130.233 88.6119C131.369 85.7469 132.184 81.4989 132.579 78.9303ZM118.082 96.0708C118.106 95.8485 118.205 95.4039 118.304 95.1816C118.477 94.8111 118.65 94.4653 118.872 94.3171C119.144 94.1443 119.514 94.3419 119.514 94.6877C119.539 94.9593 119.366 95.2804 119.094 95.6261C118.946 95.8237 118.625 96.1448 118.427 96.2683C118.032 96.5647 118.032 96.4165 118.082 96.0708ZM122.996 90.8347C122.922 90.8594 122.824 90.8842 122.749 90.983C122.749 90.983 122.206 91.5263 122.107 91.7239C121.786 92.3907 121.687 95.1075 121.194 96.4165C120.724 97.6267 119.884 98.4911 119.218 98.1948C118.526 97.8737 118.23 97.0587 118.23 97.0587C118.156 96.8611 118.254 96.6388 118.427 96.54C118.724 96.3918 119.069 96.1943 119.366 95.9226C120.255 95.1569 120.156 94.0702 119.662 93.7244C119.094 93.4774 118.131 93.9467 117.958 95.1322C117.884 95.5274 117.909 95.9225 117.933 96.2436C117.958 96.4659 117.81 96.6388 117.612 96.6882C117.612 96.6882 116.896 96.8858 116.106 96.4659C115.315 96.0214 115.809 94.8852 116.624 93.8726C117.489 92.7859 119.909 91.2546 120.206 90.6619C120.354 90.3655 120.477 89.7233 120.477 89.7233C120.502 89.6492 120.502 89.5751 120.477 89.5257C120.823 89.5257 121.589 89.5505 122.058 89.8221C122.354 89.9703 122.774 90.5136 122.996 90.8347ZM122.7 87.6981C122.725 87.3029 122.922 86.4632 123.095 86.0433C123.392 85.3518 123.737 84.7096 124.157 84.4626C124.651 84.1663 125.318 84.4873 125.367 85.1542C125.392 85.6481 125.071 86.2656 124.602 86.8831C124.33 87.2535 123.713 87.8462 123.367 88.0685C122.626 88.5872 122.651 88.3155 122.7 87.6981Z" fill="#D9C79E"/>
<path d="M81.5317 101.628C84.6683 104.122 87.484 103.776 88.4719 102.097C88.7189 101.652 88.8423 101.183 88.867 100.689C89.7561 101.801 91.238 103.48 92.4976 104.493C94.2018 105.851 95.7084 105.653 96.2518 104.74C96.4247 104.443 96.4741 104.073 96.4741 103.752C96.4741 103.752 96.5234 103.06 96.6716 102.789C96.8692 102.443 97.4126 102.171 97.4126 102.171C97.709 102.023 97.9806 101.825 98.1782 101.529C98.7216 100.615 98.1535 99.2073 96.153 98.3429C94.7699 97.7501 92.6458 97.2561 91.2134 97.0091C91.5344 96.7869 91.8061 96.5152 92.0037 96.1694C92.9916 94.49 91.9543 91.8967 88.2743 90.316C85.5328 89.1552 81.2353 88.1919 78.642 87.7474C77.7529 87.5992 77.4813 88.4636 77.9752 88.9823C77.9752 88.9823 78.7408 89.8962 79.2595 90.2666C80.2721 90.9582 85.5575 91.1558 87.9285 92.119C90.1514 93.0081 91.979 94.3665 91.1145 95.799C90.2748 97.1821 88.9411 97.5525 88.9411 97.5525C88.5706 97.676 88.1508 97.5032 88.0026 97.1327C87.7557 96.5893 87.4098 95.9718 86.9406 95.4038C85.5575 93.6996 83.5817 93.8231 82.9148 94.737C82.9148 94.737 82.9148 94.737 82.9148 94.7617C82.9148 94.7617 82.9148 94.7616 82.9148 94.7863C82.4209 95.8237 83.2606 97.6266 85.4093 98.0465C86.1749 98.1947 86.8912 98.1947 87.4839 98.17C87.8791 98.1453 88.2249 98.417 88.299 98.8121C88.299 98.8368 88.5707 100.418 87.7804 101.554C87.0147 102.64 84.8413 102.048 82.9889 100.541C80.9637 98.8863 78.321 94.6135 77.1849 93.8725C76.8391 93.6255 75.4807 93.2798 75.4807 93.2798C74.641 93.0575 74.2458 93.8972 74.7151 94.4652C76.2957 96.4164 79.1113 99.7013 81.5317 101.628ZM95.5602 102.393C95.338 102.369 94.8934 102.27 94.6711 102.171C94.2759 101.998 93.9796 101.801 93.8561 101.554C93.6832 101.233 93.9055 100.887 94.2265 100.911C94.4982 100.911 94.8193 101.109 95.1651 101.356C95.3626 101.504 95.6838 101.85 95.8072 102.023C95.9801 102.295 96.0542 102.418 95.5602 102.393ZM89.2128 98.5158C89.4845 98.0218 90.1513 97.6267 90.4477 97.4538C90.4724 97.5032 90.4971 97.5772 90.5465 97.6266C90.5465 97.6266 90.9664 98.1206 91.2381 98.3182C91.7814 98.6887 94.6464 98.8122 95.9307 99.3061C97.1409 99.8001 98.1289 100.516 97.6596 101.307C97.215 102.072 96.4741 102.245 96.4741 102.245C96.2765 102.319 96.0542 102.221 95.9554 102.023C95.8319 101.727 95.6343 101.405 95.3626 101.084C94.6217 100.171 93.5349 100.22 93.1892 100.739C92.9175 101.307 93.3621 102.295 94.5476 102.492C94.9675 102.566 95.3626 102.566 95.6837 102.566C95.906 102.542 96.0789 102.69 96.1283 102.912C96.1283 102.912 96.2765 103.776 95.8566 104.394C95.4367 104.987 94.2759 104.666 93.2633 103.851C92.1765 102.961 90.7441 100.64 90.1266 100.245C89.9291 100.121 89.1881 99.9236 89.1881 99.9236C89.0646 99.8989 88.9905 99.8989 88.8917 99.9236C88.9411 99.5284 89.0152 98.8615 89.2128 98.5158ZM87.2123 97.7254C86.7924 97.7007 85.9773 97.4785 85.5575 97.3056C84.8412 97.0092 84.2732 96.6387 84.0509 96.1941C83.7546 95.6014 84.1744 94.984 84.7425 94.984C85.2364 94.984 85.8539 95.3791 86.4466 95.8237C86.7924 96.0954 87.3852 96.7128 87.6075 97.0586C87.9532 97.5773 88.1014 97.7995 87.2123 97.7254Z" fill="#D9C79E"/>
<path d="M89.783 88.6364C91.2649 92.3658 93.8582 93.4772 95.5623 92.514C96.0069 92.267 96.3279 91.8965 96.5996 91.5013C96.8219 92.9091 97.2665 95.1073 97.8592 96.6139C98.6496 98.6391 100.057 99.2318 100.996 98.7131C101.292 98.5403 101.515 98.2439 101.663 97.9475C101.663 97.9475 102.033 97.3795 102.305 97.2066C102.651 97.009 103.268 97.0584 103.268 97.0584C103.589 97.0831 103.935 97.0337 104.256 96.8608C105.17 96.3421 105.392 94.8356 104.083 93.1067C103.169 91.8965 101.589 90.4146 100.477 89.4761C100.848 89.4267 101.243 89.3279 101.589 89.1304C103.293 88.1671 103.663 85.4009 101.268 82.1901C99.4893 79.8191 96.2291 76.8554 94.2039 75.1512C93.5124 74.5832 92.8456 75.1759 93.0184 75.8922C93.0184 75.8922 93.216 77.0776 93.4877 77.6457C94.0311 78.7571 98.5014 81.548 100.082 83.5733C101.564 85.4503 102.478 87.5496 101.021 88.3646C99.5881 89.155 98.2791 88.7845 98.2544 88.7845C97.884 88.7105 97.6123 88.34 97.637 87.9448C97.6864 87.3521 97.6864 86.6358 97.5629 85.8948C97.2171 83.7461 95.4389 82.857 94.4015 83.3263C94.4015 83.3263 94.4015 83.3263 94.3768 83.3263C94.3768 83.3263 94.3768 83.3263 94.3521 83.3263C93.4136 83.9684 93.216 85.9689 94.8954 87.3767C95.4882 87.8707 96.1057 88.2412 96.6491 88.5129C96.9948 88.6858 97.1677 89.1056 97.0442 89.4761C97.0442 89.5008 96.4761 91.0074 95.2165 91.6002C94.0063 92.1682 92.4257 90.5628 91.5859 88.34C90.6721 85.8949 90.4992 80.8812 89.8817 79.671C89.6842 79.3005 88.6963 78.3126 88.6963 78.3126C88.0788 77.6951 87.3379 78.2384 87.4367 78.9547C87.8318 81.4986 88.6222 85.7714 89.783 88.6364ZM101.564 96.2928C101.366 96.1693 101.045 95.8482 100.897 95.6506C100.65 95.3295 100.477 94.9837 100.477 94.7121C100.502 94.3416 100.848 94.1687 101.119 94.3416C101.342 94.4898 101.539 94.8109 101.687 95.2061C101.786 95.4283 101.885 95.8729 101.91 96.0952C101.959 96.4162 101.959 96.5645 101.564 96.2928ZM97.9827 89.7725C98.452 89.4761 99.2423 89.4761 99.5634 89.4761C99.5634 89.5502 99.5634 89.5996 99.5634 89.6737C99.5634 89.6737 99.6622 90.3158 99.8351 90.6122C100.131 91.2049 102.552 92.7363 103.416 93.823C104.207 94.8356 104.701 95.9717 103.935 96.4162C103.169 96.8361 102.453 96.6385 102.428 96.6385C102.231 96.5891 102.083 96.3916 102.107 96.194C102.132 95.8729 102.132 95.4777 102.083 95.0825C101.885 93.9217 100.946 93.4278 100.378 93.6748C99.8598 94.0206 99.761 95.1072 100.675 95.8729C100.996 96.1446 101.342 96.3421 101.613 96.4903C101.811 96.5891 101.885 96.8114 101.811 97.009C101.811 97.009 101.515 97.8488 100.823 98.1451C100.181 98.4415 99.3164 97.5771 98.8472 96.3669C98.3532 95.0332 98.2544 92.3164 97.9333 91.6743C97.8345 91.4767 97.2912 90.9333 97.2912 90.9333C97.2171 90.8592 97.1183 90.8098 97.0442 90.7851C97.2418 90.5134 97.6616 89.97 97.9827 89.7725ZM96.6243 88.093C96.2786 87.846 95.6611 87.2532 95.3894 86.9075C94.9202 86.29 94.5991 85.6726 94.6238 85.1786C94.6732 84.5118 95.3153 84.1907 95.834 84.4871C96.2539 84.7341 96.5996 85.3762 96.896 86.0677C97.0689 86.4876 97.2665 87.3027 97.2912 87.7225C97.3653 88.34 97.3653 88.587 96.6243 88.093Z" fill="#D9C79E"/>
<path d="M116.548 139.391C117.14 135.415 115.436 133.167 113.485 133.143C112.991 133.143 112.497 133.291 112.077 133.513C112.571 132.18 113.312 130.08 113.534 128.475C113.856 126.326 112.942 125.116 111.88 125.091C111.534 125.091 111.188 125.215 110.916 125.412C110.916 125.412 110.299 125.709 110.003 125.733C109.607 125.733 109.089 125.388 109.089 125.388C108.817 125.215 108.496 125.066 108.15 125.066C107.088 125.066 106.15 126.252 106.421 128.401C106.594 129.907 107.261 131.982 107.73 133.34C107.385 133.192 107.014 133.093 106.619 133.093C104.668 133.069 102.939 135.291 103.433 139.268C103.779 142.232 105.137 146.406 106.026 148.9C106.323 149.74 107.236 149.567 107.434 148.851C107.434 148.851 107.854 147.739 107.903 147.097C107.977 145.887 105.508 141.194 105.162 138.675C104.816 136.304 105.088 134.032 106.742 134.057C108.373 134.081 109.336 135.069 109.36 135.069C109.657 135.341 109.706 135.785 109.484 136.107C109.138 136.6 108.792 137.218 108.521 137.909C107.755 139.959 108.842 141.614 109.978 141.713H110.003H110.027C111.163 141.614 112.324 139.984 111.608 137.934C111.361 137.218 110.991 136.576 110.669 136.082C110.447 135.761 110.521 135.316 110.818 135.069C110.842 135.044 112.077 134.007 113.46 134.155C114.769 134.279 115.362 136.452 114.992 138.799C114.572 141.367 112.201 145.813 112.127 147.147C112.102 147.566 112.472 148.925 112.472 148.925C112.695 149.765 113.609 149.666 113.88 148.999C114.671 146.529 116.103 142.454 116.548 139.391ZM110.151 126.869C110.25 127.067 110.373 127.512 110.398 127.759C110.447 128.178 110.447 128.549 110.274 128.771C110.077 129.068 109.682 129.043 109.533 128.771C109.41 128.524 109.41 128.154 109.459 127.734C109.484 127.487 109.632 127.042 109.731 126.845C109.879 126.548 109.953 126.425 110.151 126.869ZM110.003 134.304C109.459 134.304 108.768 133.933 108.471 133.76C108.521 133.711 108.545 133.661 108.57 133.587C108.57 133.587 108.792 132.97 108.817 132.649C108.867 131.982 107.533 129.463 107.335 128.08C107.162 126.795 107.286 125.56 108.2 125.585C109.089 125.61 109.607 126.128 109.607 126.128C109.756 126.277 109.78 126.499 109.682 126.697C109.509 126.968 109.311 127.289 109.163 127.66C108.743 128.771 109.336 129.66 109.953 129.734C110.571 129.685 111.188 128.796 110.793 127.684C110.645 127.289 110.447 126.944 110.274 126.672C110.151 126.499 110.2 126.252 110.348 126.128C110.348 126.128 111.04 125.56 111.781 125.635C112.497 125.709 112.818 126.869 112.596 128.154C112.374 129.562 111.089 131.957 111.04 132.673C111.015 132.896 111.238 133.637 111.238 133.637C111.262 133.76 111.312 133.834 111.386 133.884C111.015 134.032 110.398 134.304 110.003 134.304ZM110.324 136.428C110.497 136.798 110.744 137.613 110.793 138.082C110.892 138.848 110.867 139.54 110.595 139.959C110.225 140.527 109.484 140.478 109.212 139.959C108.965 139.515 108.99 138.823 109.089 138.058C109.138 137.613 109.41 136.798 109.558 136.428C109.83 135.86 109.953 135.637 110.324 136.428Z" fill="#D9C79E"/>
<path d="M138.488 119.188C135.351 116.694 132.536 117.04 131.548 118.719C131.301 119.164 131.177 119.633 131.152 120.127C130.263 119.016 128.781 117.336 127.522 116.323C125.818 114.965 124.311 115.163 123.768 116.076C123.595 116.373 123.545 116.743 123.545 117.064C123.545 117.064 123.496 117.756 123.348 118.028C123.15 118.373 122.607 118.645 122.607 118.645C122.311 118.793 122.039 118.991 121.841 119.287C121.298 120.201 121.866 121.609 123.867 122.473C125.25 123.066 127.374 123.56 128.806 123.807C128.485 124.029 128.213 124.301 128.016 124.647C127.028 126.326 128.065 128.919 131.745 130.5C134.487 131.661 138.784 132.624 141.377 133.069C142.267 133.217 142.538 132.352 142.044 131.834C142.044 131.834 141.279 130.92 140.76 130.55C139.747 129.858 134.462 129.66 132.091 128.697C129.868 127.808 128.041 126.45 128.905 125.017C129.745 123.634 131.078 123.264 131.078 123.264C131.449 123.14 131.869 123.313 132.017 123.683C132.264 124.227 132.61 124.844 133.079 125.412C134.462 127.116 136.438 126.993 137.105 126.079C137.105 126.079 137.105 126.079 137.105 126.054C137.105 126.054 137.105 126.054 137.105 126.03C137.599 124.992 136.759 123.19 134.61 122.77C133.845 122.621 133.128 122.621 132.536 122.646C132.14 122.671 131.795 122.399 131.72 122.004C131.72 121.979 131.449 120.399 132.239 119.262C133.005 118.176 135.178 118.769 137.031 120.275C139.056 121.93 141.699 126.203 142.835 126.944C143.18 127.191 144.539 127.536 144.539 127.536C145.379 127.759 145.774 126.919 145.304 126.351C143.724 124.4 140.908 121.115 138.488 119.188ZM124.435 118.423C124.657 118.447 125.101 118.546 125.324 118.645C125.719 118.818 126.015 119.015 126.139 119.262C126.312 119.584 126.089 119.929 125.768 119.905C125.497 119.905 125.176 119.707 124.83 119.46C124.632 119.312 124.311 118.966 124.188 118.793C124.039 118.522 123.965 118.398 124.435 118.423ZM130.807 122.3C130.535 122.794 129.868 123.189 129.572 123.362C129.547 123.313 129.522 123.239 129.473 123.189C129.473 123.189 129.053 122.696 128.781 122.498C128.238 122.127 125.373 122.004 124.089 121.51C122.879 121.016 121.891 120.3 122.36 119.509C122.805 118.744 123.545 118.571 123.545 118.571C123.743 118.497 123.965 118.596 124.064 118.793C124.188 119.09 124.385 119.411 124.657 119.732C125.398 120.646 126.485 120.596 126.83 120.078C127.102 119.51 126.657 118.522 125.472 118.324C125.052 118.25 124.657 118.25 124.336 118.25C124.114 118.275 123.941 118.126 123.891 117.904C123.891 117.904 123.743 117.04 124.163 116.422C124.583 115.829 125.744 116.151 126.756 116.966C127.843 117.855 129.275 120.176 129.893 120.571C130.09 120.695 130.831 120.893 130.831 120.893C130.955 120.917 131.029 120.917 131.128 120.893C131.078 121.288 130.98 121.955 130.807 122.3ZM132.807 123.091C133.227 123.115 134.042 123.338 134.462 123.511C135.178 123.807 135.746 124.177 135.969 124.622C136.265 125.215 135.845 125.832 135.277 125.832C134.783 125.832 134.166 125.437 133.573 124.992C133.227 124.721 132.634 124.103 132.412 123.758C132.066 123.239 131.918 123.017 132.807 123.091Z" fill="#D9C79E"/>
<path d="M130.233 132.179C128.751 128.45 126.158 127.339 124.454 128.302C124.009 128.549 123.688 128.919 123.416 129.315C123.194 127.907 122.749 125.709 122.157 124.202C121.366 122.177 119.959 121.584 119.02 122.103C118.724 122.276 118.501 122.572 118.353 122.868C118.353 122.868 117.983 123.436 117.711 123.609C117.365 123.807 116.748 123.757 116.748 123.757C116.427 123.733 116.081 123.782 115.76 123.955C114.846 124.474 114.624 125.98 115.933 127.709C116.847 128.919 118.427 130.401 119.539 131.34C119.168 131.389 118.773 131.488 118.427 131.685C116.723 132.649 116.353 135.415 118.748 138.626C120.527 140.997 123.787 143.96 125.812 145.665C126.504 146.233 127.17 145.64 126.997 144.924C126.997 144.924 126.8 143.738 126.528 143.17C125.985 142.059 121.515 139.268 119.934 137.243C118.452 135.366 117.538 133.266 118.995 132.451C120.428 131.661 121.737 132.031 121.762 132.031C122.132 132.105 122.404 132.476 122.379 132.871C122.33 133.464 122.33 134.18 122.453 134.921C122.799 137.07 124.577 137.959 125.614 137.49C125.614 137.49 125.614 137.49 125.639 137.49C125.639 137.49 125.639 137.49 125.664 137.49C126.602 136.847 126.8 134.847 125.12 133.439C124.528 132.945 123.91 132.575 123.367 132.303C123.021 132.13 122.848 131.71 122.972 131.34C122.972 131.315 123.54 129.808 124.799 129.216C126.01 128.648 127.59 130.253 128.43 132.476C129.344 134.921 129.517 139.935 130.134 141.145C130.332 141.515 131.32 142.503 131.32 142.503C131.937 143.121 132.678 142.577 132.579 141.861C132.184 139.317 131.369 135.044 130.233 132.179ZM118.427 124.523C118.625 124.647 118.946 124.968 119.094 125.165C119.341 125.486 119.514 125.832 119.514 126.104C119.489 126.474 119.144 126.647 118.872 126.474C118.65 126.326 118.452 126.005 118.304 125.61C118.205 125.388 118.106 124.943 118.082 124.721C118.032 124.4 118.032 124.251 118.427 124.523ZM122.009 131.043C121.539 131.34 120.749 131.34 120.428 131.34C120.428 131.266 120.428 131.216 120.428 131.142C120.428 131.142 120.329 130.5 120.156 130.204C119.86 129.611 117.439 128.08 116.575 126.993C115.785 125.98 115.291 124.844 116.056 124.4C116.822 123.98 117.538 124.177 117.563 124.177C117.76 124.227 117.909 124.424 117.884 124.622C117.859 124.943 117.859 125.338 117.909 125.733C118.106 126.894 119.045 127.388 119.613 127.141C120.131 126.795 120.23 125.709 119.316 124.943C118.995 124.671 118.65 124.474 118.378 124.326C118.18 124.227 118.106 124.004 118.18 123.807C118.18 123.807 118.477 122.967 119.168 122.671C119.81 122.374 120.675 123.239 121.144 124.449C121.638 125.783 121.737 128.499 122.058 129.142C122.157 129.339 122.7 129.883 122.7 129.883C122.774 129.957 122.873 130.006 122.947 130.031C122.774 130.302 122.354 130.846 122.009 131.043ZM123.367 132.723C123.713 132.97 124.33 133.563 124.602 133.908C125.071 134.526 125.392 135.143 125.367 135.637C125.318 136.304 124.676 136.625 124.157 136.329C123.737 136.082 123.392 135.44 123.095 134.748C122.922 134.328 122.725 133.513 122.7 133.093C122.651 132.476 122.626 132.229 123.367 132.723Z" fill="#D9C79E"/>
<path d="M74.634 126.4C74.1647 126.968 74.5599 127.808 75.3996 127.586C75.3996 127.586 76.758 127.24 77.1038 126.993C78.2399 126.252 80.8826 121.979 82.9079 120.324C84.7602 118.818 86.9336 118.225 87.6992 119.312C88.4896 120.448 88.2179 122.029 88.2179 122.053C88.1439 122.448 87.798 122.72 87.4029 122.695C86.8101 122.671 86.0692 122.671 85.3282 122.819C83.1795 123.214 82.3645 125.042 82.8338 126.079C82.8338 126.079 82.8338 126.079 82.8338 126.104C82.8338 126.104 82.8338 126.104 82.8338 126.128C83.5006 127.067 85.4764 127.166 86.8595 125.462C87.3288 124.893 87.6746 124.251 87.9216 123.733C88.0945 123.387 88.4896 123.189 88.86 123.313C88.8847 123.313 90.2185 123.659 91.0335 125.066C91.8979 126.499 90.0456 127.857 87.8475 128.746C85.4765 129.71 80.1911 129.907 79.1784 130.599C78.6598 130.944 77.8942 131.883 77.8942 131.883C77.4002 132.402 77.6719 133.266 78.561 133.118C81.1543 132.649 85.4517 131.71 88.1932 130.549C91.8732 128.969 92.9353 126.375 91.9227 124.696C91.7251 124.35 91.4534 124.078 91.1323 123.856C92.5648 123.585 94.6641 123.115 96.0719 122.522C98.0725 121.658 98.6405 120.25 98.0972 119.336C97.9243 119.04 97.6279 118.818 97.3315 118.694C97.3315 118.694 96.7634 118.423 96.5906 118.077C96.4424 117.805 96.393 117.114 96.393 117.114C96.4177 116.768 96.3683 116.422 96.1707 116.126C95.6274 115.212 94.1207 115.039 92.4166 116.373C91.157 117.385 89.6751 119.065 88.786 120.176C88.7613 119.682 88.6625 119.213 88.3909 118.768C87.3782 117.089 84.5873 116.743 81.4506 119.238C79.1043 121.115 76.2888 124.4 74.634 126.4ZM95.7756 118.793C95.6521 118.966 95.331 119.312 95.1334 119.46C94.8123 119.707 94.4665 119.904 94.1948 119.904C93.8738 119.904 93.6515 119.583 93.8244 119.262C93.9479 119.015 94.269 118.818 94.6395 118.645C94.8617 118.546 95.3063 118.423 95.5286 118.423C96.0472 118.398 95.9731 118.521 95.7756 118.793ZM88.8848 120.868C88.9589 120.892 89.0576 120.892 89.1811 120.868C89.1811 120.868 89.9221 120.67 90.1197 120.547C90.7371 120.151 92.1696 117.83 93.2563 116.941C94.2442 116.126 95.4298 115.805 95.8496 116.397C96.2942 117.015 96.146 117.879 96.1213 117.879C96.0966 118.077 95.899 118.225 95.6767 118.225C95.3557 118.2 94.9605 118.2 94.5407 118.299C93.3798 118.521 92.9352 119.509 93.1822 120.053C93.5527 120.547 94.6147 120.621 95.3557 119.707C95.6026 119.386 95.8003 119.065 95.9485 118.768C96.0473 118.571 96.2695 118.472 96.4671 118.546C96.4671 118.546 97.2081 118.744 97.6526 119.485C98.1219 120.25 97.1092 120.991 95.9237 121.485C94.6394 122.004 91.7745 122.103 91.2311 122.473C90.9347 122.671 90.5396 123.165 90.5396 123.165C90.4902 123.214 90.4655 123.288 90.4408 123.337C90.1444 123.165 89.4775 122.769 89.2059 122.275C89.0083 121.954 88.9342 121.263 88.8848 120.868ZM87.5758 123.757C87.3535 124.078 86.7607 124.721 86.415 124.992C85.7975 125.462 85.2048 125.832 84.7108 125.832C84.118 125.832 83.7229 125.215 84.0192 124.622C84.2415 124.177 84.8096 123.807 85.5259 123.51C85.9457 123.337 86.7607 123.115 87.1806 123.091C88.0944 123.016 87.9462 123.239 87.5758 123.757Z" fill="#D9C79E"/>
<path d="M87.4117 141.861C87.2882 142.577 88.0538 143.096 88.6713 142.503C88.6713 142.503 89.6839 141.515 89.8568 141.145C90.4743 139.935 90.6225 134.921 91.561 132.476C92.4007 130.228 94.0061 128.648 95.1916 129.216C96.4512 129.808 96.9946 131.315 97.0193 131.34C97.1427 131.71 96.9945 132.105 96.6241 132.303C96.0807 132.575 95.4633 132.945 94.8705 133.439C93.2158 134.872 93.3886 136.847 94.3272 137.49C94.3272 137.49 94.3271 137.49 94.3518 137.49C94.3518 137.49 94.3518 137.49 94.3765 137.49C95.4139 137.959 97.1921 137.07 97.5379 134.921C97.6614 134.18 97.6614 133.464 97.612 132.871C97.5873 132.476 97.8343 132.13 98.2294 132.031C98.2541 132.031 99.5631 131.661 100.996 132.451C102.453 133.266 101.539 135.366 100.057 137.243C98.4764 139.243 94.0061 142.059 93.4627 143.17C93.1911 143.738 92.9935 144.924 92.9935 144.924C92.8206 145.64 93.5121 146.233 94.179 145.665C96.2042 143.96 99.4396 141.021 101.243 138.626C103.638 135.415 103.268 132.649 101.564 131.685C101.218 131.488 100.847 131.389 100.452 131.34C101.539 130.401 103.144 128.919 104.058 127.709C105.367 125.98 105.145 124.474 104.231 123.955C103.935 123.782 103.589 123.733 103.243 123.757C103.243 123.757 102.626 123.807 102.28 123.609C102.008 123.461 101.638 122.868 101.638 122.868C101.49 122.572 101.267 122.276 100.971 122.103C100.057 121.584 98.6493 122.177 97.8343 124.202C97.2415 125.709 96.8217 127.907 96.5747 129.315C96.303 128.895 95.9819 128.549 95.5374 128.302C93.8332 127.339 91.2399 128.45 89.758 132.179C88.6219 135.044 87.8315 139.292 87.4117 141.861ZM101.934 124.721C101.909 124.943 101.811 125.388 101.712 125.61C101.539 125.98 101.366 126.326 101.144 126.474C100.872 126.647 100.502 126.45 100.502 126.104C100.477 125.832 100.65 125.511 100.922 125.165C101.07 124.968 101.391 124.647 101.588 124.523C101.959 124.251 101.959 124.4 101.934 124.721ZM96.9945 129.957C97.0686 129.932 97.1674 129.907 97.2415 129.808C97.2415 129.808 97.7849 129.265 97.8837 129.068C98.2048 128.401 98.3036 125.684 98.7975 124.375C99.2668 123.165 100.106 122.3 100.773 122.597C101.465 122.918 101.761 123.733 101.761 123.733C101.835 123.93 101.737 124.153 101.564 124.251C101.267 124.4 100.922 124.597 100.625 124.869C99.736 125.635 99.8348 126.721 100.329 127.067C100.897 127.314 101.86 126.845 102.033 125.659C102.107 125.264 102.082 124.869 102.058 124.548C102.033 124.326 102.181 124.153 102.379 124.103C102.379 124.103 103.095 123.906 103.885 124.326C104.676 124.77 104.182 125.906 103.367 126.919C102.502 128.006 100.082 129.537 99.7854 130.13C99.6372 130.426 99.5138 131.068 99.5138 131.068C99.4891 131.142 99.4891 131.216 99.5138 131.266C99.168 131.266 98.4023 131.241 97.9331 130.969C97.6614 130.846 97.2415 130.302 96.9945 129.957ZM97.3156 133.118C97.2909 133.513 97.0933 134.353 96.9204 134.773C96.6241 135.464 96.2783 136.106 95.8584 136.353C95.3645 136.65 94.6977 136.329 94.6483 135.662C94.6236 135.168 94.9446 134.55 95.4139 133.933C95.6856 133.563 96.303 132.97 96.6488 132.747C97.365 132.229 97.365 132.476 97.3156 133.118Z" fill="#D9C79E"/>
<path d="M74.4432 99.4294C74.9125 97.8241 74.4432 96.7374 74.4432 96.7374C74.4432 96.7374 74.0234 95.9223 73.6035 97.3054C73.2577 98.4416 72.3192 99.4294 71.2572 99.7258C70.0223 100.096 71.1831 100.714 71.1831 100.714C72.171 101.455 72.1216 101.875 72.5662 102.023C73.0108 102.171 74.0974 100.615 74.4432 99.4294Z" fill="#D9C79E"/>
<path d="M84.7127 83.1785C85.8982 82.0176 86.0711 80.8321 86.0711 80.8321C86.0711 80.8321 86.1205 79.9183 85.0585 80.9062C84.1941 81.7212 82.8851 82.0917 81.823 81.8447C80.5881 81.5484 81.255 82.6597 81.255 82.6597C81.7489 83.7958 81.5019 84.1417 81.7983 84.4874C82.0947 84.8332 83.8235 84.0429 84.7127 83.1785Z" fill="#D9C79E"/>
<path d="M118.204 146.628C116.598 147.023 115.857 147.986 115.857 147.986C115.857 147.986 115.363 148.752 116.771 148.431C117.932 148.159 119.241 148.48 120.031 149.246C120.97 150.135 120.921 148.826 120.921 148.826C121.069 147.591 121.439 147.443 121.365 146.974C121.316 146.48 119.414 146.332 118.204 146.628Z" fill="#D9C79E"/>
<path d="M146.559 102.246C146.954 103.851 147.917 104.592 147.917 104.592C147.917 104.592 148.683 105.086 148.362 103.678C148.09 102.517 148.411 101.208 149.177 100.418C150.066 99.4793 148.757 99.5288 148.757 99.5288C147.522 99.3806 147.374 99.0101 146.904 99.0842C146.435 99.1583 146.238 101.035 146.559 102.246Z" fill="#D9C79E"/>
<path d="M145.569 121.386C145.1 122.992 145.569 124.078 145.569 124.078C145.569 124.078 145.989 124.893 146.409 123.51C146.754 122.374 147.693 121.386 148.755 121.09C149.99 120.719 148.829 120.102 148.829 120.102C147.841 119.361 147.89 118.941 147.446 118.793C147.001 118.62 145.89 120.201 145.569 121.386Z" fill="#D9C79E"/>
<path d="M135.298 137.613C134.113 138.774 133.94 139.959 133.94 139.959C133.94 139.959 133.89 140.873 134.952 139.885C135.817 139.07 137.126 138.7 138.188 138.946C139.423 139.243 138.756 138.131 138.756 138.131C138.262 136.995 138.509 136.65 138.213 136.304C137.916 135.958 136.187 136.773 135.298 137.613Z" fill="#D9C79E"/>
<path d="M73.4956 119.015C73.2239 117.385 72.3595 116.57 72.3595 116.57C72.3595 116.57 71.6433 116.002 71.8409 117.459C71.9891 118.645 71.5692 119.929 70.7542 120.645C69.7909 121.485 71.1 121.584 71.1 121.584C72.3102 121.831 72.4336 122.226 72.9029 122.201C73.3474 122.127 73.6932 120.225 73.4956 119.015Z" fill="#D9C79E"/>
<path d="M99.5623 146.257C98.0558 145.541 96.8949 145.788 96.8949 145.788C96.8949 145.788 96.0305 146.06 97.3148 146.726C98.3768 147.27 99.1919 148.332 99.3154 149.443C99.4635 150.703 100.279 149.69 100.279 149.69C101.168 148.826 101.588 148.949 101.81 148.554C102.032 148.134 100.674 146.8 99.5623 146.257Z" fill="#D9C79E"/>
<path d="M82.8373 135.908C81.8 134.624 80.6392 134.352 80.6392 134.352C80.6392 134.352 79.7253 134.229 80.6144 135.39C81.3307 136.328 81.6024 137.662 81.2566 138.699C80.8368 139.909 82.0223 139.341 82.0223 139.341C83.1831 138.946 83.5042 139.243 83.8993 138.971C84.2698 138.675 83.6277 136.872 82.8373 135.908Z" fill="#D9C79E"/>
<path d="M101.389 74.1145C103.019 73.8181 103.809 72.9043 103.809 72.9043C103.809 72.9043 104.353 72.1633 102.92 72.4103C101.759 72.6079 100.45 72.2127 99.7095 71.3977C98.845 70.4592 98.7956 71.7682 98.7956 71.7682C98.5734 72.9784 98.1782 73.1266 98.2523 73.5958C98.277 74.0651 100.179 74.3368 101.389 74.1145Z" fill="#D9C79E"/>
<path d="M120.729 74.8303C122.285 75.3983 123.421 75.0032 123.421 75.0032C123.421 75.0032 124.261 74.6327 122.902 74.114C121.791 73.6941 120.877 72.7062 120.63 71.6195C120.358 70.3599 119.667 71.4713 119.667 71.4713C118.876 72.4098 118.457 72.3358 118.259 72.7556C118.061 73.1755 119.543 74.4104 120.729 74.8303Z" fill="#D9C79E"/>
<path d="M137.051 84.6106C138.039 85.9443 139.2 86.2654 139.2 86.2654C139.2 86.2654 140.114 86.4382 139.249 85.228C138.558 84.2648 138.335 82.9311 138.731 81.8938C139.2 80.7083 138.014 81.2269 138.014 81.2269C136.829 81.5727 136.532 81.2763 136.137 81.5233C135.742 81.7703 136.31 83.6226 137.051 84.6106Z" fill="#D9C79E"/>
<path d="M109.955 134.501C123.241 134.501 134.011 123.731 134.011 110.445C134.011 97.1592 123.241 86.389 109.955 86.389C96.6696 86.389 85.8994 97.1592 85.8994 110.445C85.8994 123.731 96.6696 134.501 109.955 134.501Z" fill="#D9C79E"/>
<path d="M184.102 57.1844C184.077 57.1331 183.925 57.0304 183.646 57.0047C183.443 56.979 182.885 56.9277 182.378 57.3385C181.617 57.852 163.89 71.0241 155.369 77.3662L151.083 80.5501C148.547 82.0907 144.338 84.4529 140.61 86.507C138.632 87.6111 136.856 88.5868 135.639 89.3058C130.212 92.1302 122.959 97.3939 119.459 101.04C117.786 102.658 116.163 104.352 114.59 106.021C113.728 106.946 112.84 107.87 111.953 108.769C111.877 108.846 111.775 108.923 111.648 108.974C111.268 108.692 110.812 108.46 110.33 108.332C109.112 107.973 107.895 108.127 106.855 108.692C106.729 108.64 106.627 108.589 106.5 108.486C105.638 107.87 104.218 106.355 102.595 104.583C101.327 103.222 100.034 101.81 98.8416 100.681C95.5448 97.5223 87.4549 91.8991 82.5097 89.3058C78.8832 87.4057 70.9708 83.1434 67.1161 80.9866L67.0907 80.9609C65.848 80.0622 63.9207 78.6243 61.7397 77.0324C58.3415 74.5161 54.5121 71.6917 51.7225 69.7146C50.8349 69.0726 50.0233 69.4835 49.8965 69.6632C49.8458 69.7403 49.7697 69.9457 49.7951 70.2281C49.8458 70.5106 49.998 70.8957 50.5559 71.3066C51.4435 71.9998 62.2215 79.9081 65.7973 82.4758C68.0543 84.4272 71.5794 87.7395 74.6987 90.6666C76.3471 92.2072 77.818 93.6195 78.8578 94.5438C83.2197 98.8575 90.422 104.173 94.9361 106.432C96.9649 107.536 99.0951 108.563 101.149 109.565C102.29 110.104 103.432 110.669 104.548 111.234C104.598 111.259 104.649 111.285 104.7 111.336C104.674 111.388 104.674 111.439 104.649 111.49C104.269 112.748 104.471 114.058 105.055 115.111C105.004 115.162 104.979 115.213 104.928 115.239L79.999 133.803L80.7598 134.83C83.2705 132.982 100.439 120.323 105.714 116.343C105.79 116.292 105.866 116.266 105.942 116.215C106.424 116.677 107.008 117.011 107.692 117.216C109.467 117.755 111.319 117.139 112.46 115.804C112.561 115.83 112.663 115.881 112.764 115.932L137.998 134.06L138.733 133.007C136.222 131.184 118.952 118.654 113.55 114.803C113.424 114.7 113.322 114.572 113.246 114.443C113.297 114.315 113.348 114.212 113.373 114.084C113.601 113.339 113.626 112.569 113.474 111.85C113.576 111.721 113.703 111.593 113.855 111.49C114.717 110.848 116.568 109.975 118.749 108.974C120.423 108.178 122.147 107.382 123.593 106.586C127.575 104.404 135.411 98.3953 139.392 94.4411C142.309 91.5653 148.801 85.3003 152.022 82.2704L152.047 82.2447L156.663 78.8298C164.803 72.7958 179.918 61.5751 183.443 58.9305C183.975 58.4683 184.508 57.8007 184.102 57.1844Z" fill="black"/>
</svg>
