<?xml version="1.0" standalone="no"?>
<!DOCTYPE svg PUBLIC "-//W3C//DTD SVG 20010904//EN"
 "http://www.w3.org/TR/2001/REC-SVG-20010904/DTD/svg10.dtd">
<svg version="1.0" xmlns="http://www.w3.org/2000/svg"
 width="700.000000pt" height="700.000000pt" viewBox="0 0 700.000000 700.000000"
 preserveAspectRatio="xMidYMid meet">
<metadata>
Created by potrace 1.14, written by Peter Selinger 2001-2017
</metadata>
<g transform="translate(0.000000,700.000000) scale(0.100000,-0.100000)"
fill="#000000" stroke="none">
<path d="M5110 4639 c-135 -99 -328 -243 -430 -318 -201 -149 -215 -159 -490
-311 -317 -176 -413 -246 -614 -449 -123 -123 -142 -139 -159 -129 -11 6 -43
8 -70 5 l-51 -4 -110 114 c-61 64 -138 137 -171 163 -108 86 -297 206 -460
292 -280 149 -319 173 -491 300 -252 186 -258 190 -278 182 -9 -4 -16 -14 -14
-23 2 -9 98 -85 213 -169 158 -114 265 -203 429 -355 333 -307 435 -382 686
-507 l145 -72 1 -42 c0 -22 2 -46 5 -52 2 -6 -132 -113 -298 -236 -395 -295
-370 -275 -356 -289 13 -13 8 -17 419 288 l262 193 35 -15 c48 -20 62 -19 113
5 l42 21 269 -193 c147 -106 298 -215 336 -241 61 -44 87 -52 87 -27 0 5 -60
52 -132 104 -73 53 -205 148 -293 212 -88 63 -180 130 -205 148 -44 31 -46 35
-42 75 l4 42 152 76 c236 118 363 214 668 509 191 183 230 215 641 521 311
231 437 330 437 344 0 12 -7 19 -18 19 -10 0 -128 -81 -262 -181z"/>
</g>
</svg>
